<svg width="164" height="49" viewBox="0 0 164 49" fill="none" xmlns="http://www.w3.org/2000/svg">
<path d="M2.29194 36.799C13.9852 32.7375 25.6785 28.6761 37.3049 24.785C39.0411 24.2867 39.2879 21.0411 37.3889 21.0822C32.352 21.268 27.0999 21.5659 22.063 21.7517C45.1932 8.61271 70.6452 7.00238 94.6612 12.1033C107.559 15.003 120.152 19.5525 132.195 25.066C143.578 30.517 154.411 36.9321 162.119 47.8221C162.808 48.6825 164.367 47.3281 163.596 46.2391C156.994 35.5862 147.318 28.839 136.595 23.4505C123.188 16.6151 109.03 11.2549 94.1519 8.16763C68.7342 2.71316 41.1971 5.27465 17.1162 20.3999C19.7533 14.5533 21.7972 8.47396 23.2477 2.16171C23.6198 0.341576 21.1798 -0.419529 20.2813 0.997364C13.8059 11.8257 7.26357 22.8244 0.788119 33.6527C0.0379577 35.1278 0.771019 37.1851 2.29194 36.799ZM13.7983 23.6197C13.5453 24.7002 14.0195 25.6727 15.0431 25.6813L24.8203 25.1933C18.4691 27.4193 12.1848 29.4748 5.83359 31.7007C9.27921 25.975 12.658 20.4195 15.9553 14.6355C15.0859 16.8503 14.1497 19.2355 13.1321 21.3921C12.7309 22.4143 13.1235 23.1583 13.7983 23.6197Z" fill="#E27031"/>
</svg>
