<svg width="15" height="15" viewBox="0 0 15 15" fill="none" xmlns="http://www.w3.org/2000/svg">
<g clip-path="url(#clip0_501_146)">
<path d="M6.64551 8.78257L5.86403 12.1422L6.17148 12.96C6.23781 13.1363 6.4623 13.1886 6.59966 13.0596L7.23626 12.4614L8.01775 9.10176C7.7854 9.09111 7.55094 9.06234 7.31637 9.00778C7.0818 8.95321 6.85871 8.87555 6.64551 8.78257ZM8.91236 2.1466C7.20714 1.74995 5.50329 2.81072 5.10663 4.51593C4.70998 6.22115 5.77075 7.92501 7.47597 8.32166C9.18118 8.71831 10.885 7.65754 11.2817 5.95232C11.6783 4.24711 10.6176 2.54325 8.91236 2.1466ZM8.53331 3.77613C7.72927 3.5891 6.92319 4.09094 6.73616 4.89498C6.70315 5.03692 6.56096 5.12544 6.41902 5.09243C6.27708 5.05941 6.18856 4.91722 6.22158 4.77528C6.47459 3.68757 7.56551 3.00858 8.65301 3.26154C8.79495 3.29456 8.88347 3.43674 8.85045 3.57868C8.81744 3.72063 8.67525 3.80915 8.53331 3.77613Z" fill="#E27031"/>
</g>
<defs>
<clipPath id="clip0_501_146">
<rect width="11.271" height="11.271" fill="white" transform="translate(3.42334 0.869751) rotate(13.0948)"/>
</clipPath>
</defs>
</svg>
