<?xml version="1.0" encoding="UTF-8"?><!DOCTYPE svg PUBLIC "-//W3C//DTD SVG 1.1//EN" "http://www.w3.org/Graphics/SVG/1.1/DTD/svg11.dtd"><svg xmlns="http://www.w3.org/2000/svg"><defs><clipPath id="a"><path transform="rotate(13.095 -2.077 15.348)" d="M0 0h11.271v11.271H0z"/></clipPath></defs><symbol id="angle-right" viewBox="0 0 16 16"><path d="M11.01 8.531l-4.25 4.25a.747.747 0 0 1-1.06 0l-.706-.706a.747.747 0 0 1 0-1.06l3.012-3.012-3.012-3.012a.747.747 0 0 1 0-1.06l.703-.712a.747.747 0 0 1 1.06 0l4.25 4.25a.748.748 0 0 1 .002 1.062z" opacity=".2"/></symbol><symbol id="custom-arrow" viewBox="0 0 164 49"><path d="M2.292 36.799c11.693-4.062 23.386-8.123 35.013-12.014 1.736-.498 1.983-3.744.084-3.703-5.037.186-10.29.484-15.326.67 23.13-13.14 48.582-14.75 72.598-9.649 12.898 2.9 25.491 7.45 37.534 12.963 11.383 5.451 22.216 11.866 29.924 22.756.689.86 2.248-.494 1.477-1.583-6.602-10.653-16.278-17.4-27.001-22.788-13.407-6.836-27.565-12.196-42.443-15.283C68.734 2.713 41.197 5.275 17.116 20.4a97.172 97.172 0 0 0 6.132-18.238C23.62.342 21.18-.42 20.28.997 13.806 11.826 7.264 22.824.788 33.653c-.75 1.475-.017 3.532 1.504 3.146zm11.506-13.18c-.253 1.081.222 2.054 1.245 2.062l9.777-.488c-6.35 2.226-12.635 4.282-18.986 6.508 3.445-5.726 6.824-11.282 10.121-17.066-.87 2.215-1.805 4.6-2.823 6.757-.401 1.022-.008 1.766.666 2.228z"/></symbol><symbol id="envelope" viewBox="0 0 20 20"><path d="M19.621 7.453a.235.235 0 0 1 .379.184v7.988c0 1.035-.84 1.875-1.875 1.875H1.875A1.875 1.875 0 0 1 0 15.625V7.641c0-.196.223-.305.379-.184.875.68 2.035 1.543 6.02 4.438.824.601 2.214 1.867 3.601 1.859 1.395.012 2.813-1.281 3.605-1.86C17.59 9 18.746 8.134 19.621 7.455zM10 12.5c.906.016 2.21-1.14 2.867-1.617 5.184-3.762 5.578-4.09 6.774-5.028A.935.935 0 0 0 20 5.117v-.742C20 3.34 19.16 2.5 18.125 2.5H1.875C.84 2.5 0 3.34 0 4.375v.742c0 .29.133.559.36.738 1.195.934 1.59 1.266 6.773 5.028.656.476 1.96 1.633 2.867 1.617z"/></symbol><symbol id="map-pin" viewBox="0 0 15 15"><g clip-path="url(#a)"><path d="M6.646 8.783l-.782 3.36.307.817c.067.176.291.229.429.1l.636-.599.782-3.36a3.87 3.87 0 0 1-.702-.093 3.87 3.87 0 0 1-.67-.225zm2.266-6.636a3.17 3.17 0 1 0-1.436 6.175 3.17 3.17 0 0 0 1.436-6.175zm-.379 1.63a1.498 1.498 0 0 0-1.797 1.118.264.264 0 0 1-.514-.12 2.028 2.028 0 0 1 2.431-1.513.264.264 0 0 1-.12.514z"/></g></symbol></svg>