<svg data-name="Camada 1" xmlns="http://www.w3.org/2000/svg" width="516" height="537" viewBox="0 0 516 537" fill="none"><path d="M321.203 432.139c-3.443 3.445-5.739 1.435-7.174.287-1.722-1.436-2.87-2.297-6.601 0-3.444 2.296-5.74 4.306-7.462 6.028-2.296 2.297-4.018 3.732-6.601 3.732h-1.435c-2.296-.574-4.305-1.722-6.601-2.87-2.296-1.436-4.879-2.584-7.461-3.158-1.435-.287-2.87-.574-4.018-.861-3.444-.862-6.314-1.723-11.193.574-.287.861-.574 2.009-1.148 2.87-.574 2.01-1.435 4.02-2.009 6.316l.287.287.287.287-.574.287c1.435 2.01 6.027 1.723 11.193 1.149 2.296 0 4.879-.287 7.462-.287 7.748 0 15.21 5.454 20.95 10.047 1.722 1.149 3.157 2.584 4.592 3.445 3.157 2.01 5.453 2.584 7.462 2.871 1.722.287 3.157.574 4.592 2.009 2.87 2.297.861 5.742-.861 8.613-.861 1.435-1.435 2.583-1.722 3.732v.287c.287.287 2.296.574 4.305.287 3.443-3.445 6.6-6.603 9.47-9.187 2.87-2.583 5.453-4.88 6.601-6.602 2.009-2.584 1.435-5.455.287-10.335-.861-3.158-1.435-6.89-1.435-11.196 0-3.445.861-6.603 1.722-9.186-2.583-.862-9.471-2.871-12.915.574z" fill="#EBEEF1"/><path d="M507.176 178.651c-1.148.574-2.009.861-2.87 1.148-1.435.574-2.87.861-6.601 2.871-2.296 1.148-2.296 2.296-2.583 3.445 0 .861-.287 1.722-1.148 2.583-.574.287-1.148.574-2.009.574-.574 0-1.435 0-2.009-.287-5.74-1.148-6.027-4.306-6.601-6.889 0-.575-.287-1.436-.574-2.297 0-.287-.287-.574-.861-.861-1.722-.574-5.166.574-6.601 1.435l-.574.574c-1.435 1.149-4.018 3.158-7.175 2.584-1.721-.287-3.443-1.435-4.878-3.158 0 0-.287 0-.287.287h-.574c-1.148 0-2.296-1.148-3.444-2.009-1.148-1.149-2.296-2.297-3.731-2.297-1.148-.287-4.305.861-6.888 1.722-2.87.862-5.166 1.436-6.888 1.723 1.435 2.871 1.148 4.306-2.009 8.038-1.722 2.01-3.731 3.732-5.453 5.455 1.148 1.148 2.87 3.157 3.731 6.602.861 3.445 1.435 4.306 1.722 4.306 0 0 .574-.287 1.435-1.435 1.148-1.148 1.148-2.297 1.435-3.158.287-2.296.861-3.732 4.879-5.741 2.296-1.149 2.87-2.297 3.444-3.445.574-.861.861-1.723 2.009-2.01 1.435-.287 2.583.287 4.592 1.723 3.444 2.296 6.314 3.732 8.323 4.88 1.722.861 2.583 1.435 3.157 2.009.286.288 1.147.862 2.295 1.436.574-2.01 1.435-3.158 2.583-3.732 2.009-.861 4.305.574 7.462 2.584.574.287 1.148.861 2.009 1.148 3.444 2.296 4.305 1.722 7.749.574.574-.287 1.148-.574 1.722-.574 2.009-.574 3.444-1.435 4.592-1.723 2.009-.861 3.731-1.435 6.027-2.009 2.87-.574 6.026-.287 7.748-.287 2.296-4.019 3.731-9.474 4.592-15.215-1.722-1.149-5.74-1.436-7.748-.574z" fill="#00264B"/><path d="M312.593 245.826l.861.862-.287.574c.287.574 1.435 1.722 5.166 4.306.574.574 2.583 1.722 3.157 2.009.861-.861 2.009-1.722 4.305-2.296 3.444-.574 4.879.287 6.027 1.435.861.574 1.148 1.149 3.444.861 1.722-.287 2.87-.287 4.305-.574 2.296-.287 4.305-.574 5.74-.287 0 0 0-.287.287-.287 1.148-1.722 3.731-2.871 8.035-2.871h.287c5.166 0 8.323 1.149 10.045 1.723.574.287 1.435.574 1.435.287 0 0 .287-.287.574-1.148 1.148-2.01.287-3.158-1.148-5.455-.861-1.148-1.722-2.583-2.009-4.019-.574-2.584.861-3.732 1.722-4.593.861-.861 1.148-.861.287-2.584-.861-1.722-2.009-2.871-3.157-4.306-2.009-2.297-4.592-4.88-1.722-7.751 1.435-1.148 3.444-1.722 5.166-2.009.861-.288 2.583-.575 2.87-.862 0 0 0-.574-.287-1.148-.574-.287-1.435-1.435-2.009-2.584-2.87-3.445-7.749-9.473-8.61-13.779-.287-1.723-1.148-2.01-3.444-2.01-1.148 0-2.582 0-3.443-1.148-.861-1.148-.287-2.584 0-2.871.861-2.297 2.582-3.732 3.73-5.167.574-.574 1.722-1.723 1.722-2.01-.574-.574-1.148-.574-2.296-.574-2.009 0-5.165-.287-6.887-5.167-.574-1.723-1.148-2.871-1.722-4.019-1.435-3.732-2.583-6.029-.287-7.751.861-1.436 4.018-13.206.861-20.957-1.435-3.445-3.731-5.454-6.888-6.316-2.583.862-4.879 1.723-5.453 3.158-.574 1.436 0 2.01 2.296 3.732 2.296 1.723 5.166 4.019 4.879 8.325-.287 4.881-4.592 7.177-8.61 9.187-2.583 1.435-5.166 2.583-6.888 4.593-1.722 2.01-1.148 4.593-.574 7.751.861 3.732 1.722 7.751-2.009 10.622-5.453 4.306-8.61 15.502-8.897 15.502l-.287 1.148h-.287c-13.775 23.828 0 38.468 0 38.468z" fill="#EBEEF1"/><path d="M421.651 360.37c-.287.861-.861 1.722-2.296 3.157-1.148 1.149-1.722 2.584-2.583 4.02-1.148 2.009-2.296 4.019-4.018 5.741-3.157 2.584-3.157 2.584-7.462 5.454-2.869 2.01-6.026 1.149-8.896.575-1.722-.287-3.444-.575-4.592-.287-1.722.287-3.731 1.148-5.453 2.009 1.722.861 3.444 2.297 5.166 4.019 1.148 1.436 1.722 2.871 1.435 4.593 0 .575-.574 1.436-.861 2.01h.287c2.009-.287 4.018-.861 6.601-1.723 3.157-1.148 6.026-1.148 8.609-1.148 4.018-.287 8.323-.287 15.498-3.732 8.036-4.019 8.61-7.177 9.471-11.77.287-1.148.574-2.584.861-4.019-2.009 0-4.879-.861-8.323-4.019-1.435-2.01-2.87-3.732-3.444-4.88z" fill="#00264B"/><path d="M413.902 125.541c.574.287 1.435.575 1.722 1.723.287 1.148-.287 2.584-2.295 5.167-2.009 2.297-3.731 3.445-4.592 4.019-1.435.861-1.435.862-.861 4.019.861 5.455.574 6.89 0 9.761 0 .287-.287.861-.287 1.435-.287.574-.287 1.436-.574 2.297-.287 1.148-1.148 3.732-.574 4.019 2.009.574 4.018 2.009 4.592 4.306.574 1.723 0 3.158-.861 4.306-1.148 1.149-2.87 1.149-4.592.861-2.009-.287-4.879-.574-7.749 1.723-2.296 1.722-2.87 2.871-3.444 4.019-.861 1.722-1.722 3.445-6.027 5.454-2.87 1.149-4.305 1.436-5.166 1.436-.861 0-1.148.287-4.305 3.445-2.583 2.583-4.305 3.445-5.166 4.019-1.148.574-1.148.574-1.435 3.158-.287 2.87 0 5.167 0 7.177 0 2.009.287 3.444 0 5.167-.287 1.435-1.147 3.445-2.008 5.454-.287.287-.287.574-.574 1.149 1.435.861 3.73 2.583 5.165 4.593.861 1.148 1.148 2.296 1.435 3.158.574 2.296 1.148 4.593 7.462 5.167 4.879.574 4.879.287 5.166-.574.287-.861.861-2.584 3.157-3.732 4.018-2.01 5.166-5.167 5.166-11.483V204.2c0-1.722 0-2.296.574-2.871.574-.574 1.148-.574 1.435-.574h.574c1.722-.861 4.018.287 6.888 1.723 2.009 1.148 4.592 2.009 7.174 2.87 2.583.575 3.444-.287 4.879-2.583 1.148-1.436 2.296-3.445 4.879-4.88 4.592-2.584 9.184-6.603 14.063-11.771 2.583-2.87 2.583-2.87 1.435-4.88-.287-.574-.574-1.435-1.148-2.584 0-.287-.287-.287-.287-.574v-.287c-1.148-3.158-.574-4.593.574-6.315.861-1.149 1.722-2.871 2.296-6.603.574-4.019 0-4.306-1.722-5.455-1.435-.861-3.731-2.009-5.166-5.454-1.722-3.732-1.435-5.455-.574-6.89 0 0 0-.287-.574-1.148-1.722-2.584-.574-5.455 0-7.751.861-2.584 1.148-4.019 0-5.455-3.157-3.732-3.157-14.066-2.87-18.085-.861-.288-1.722-.288-2.583-.575-5.74 4.306-11.48 9.474-13.202 11.483z" fill="#EBEEF1"/><path d="M443.463 320.466c-.574 1.436-2.583 2.297-3.731 2.584-.861.287-1.722.574-2.583 1.148-2.296 1.436-3.157 4.306-3.731 11.196 0 1.149 0 2.297-.287 3.158-.287 4.88-.287 8.612-5.74 11.483-2.583 1.436-2.583 1.723-2.87 2.297 0 .861 0 2.009-1.148 3.445 0 0-.574 2.296 4.018 6.315 4.018 3.732 6.601 3.158 7.462 2.871 1.722-3.445 3.444-6.029 5.166-8.325 2.009-2.871 4.018-5.742 5.74-10.048 3.444-8.325 3.444-16.65 3.444-16.937v.287l.287-.287s.574-.861 1.148-2.01c0-1.148-.861-4.019-7.175-7.177zM302.549 342.858l-.574.574c0 1.436-.287 2.584-.574 3.445.574 2.01 2.009 9.187-3.731 11.483-4.305 1.723-4.592 2.01-6.601 5.167l-.574.862c-1.148 1.722-1.722 2.87-2.009 4.306-.574 1.148-.861 2.584-2.296 4.88-.86 1.436-1.147 2.297-1.434 3.445-.287 1.435-.861 2.584-2.009 4.019 4.591 0 6.6 1.148 9.47 3.158.861.574 2.009 1.435 3.444 2.297 3.731 2.296 5.166 2.009 8.61 1.148 1.722-.287 4.018-.861 6.888-1.148 7.175-.575 8.036 2.296 8.897 7.176.287 2.01.861 4.307 1.722 6.89 1.148 2.871 1.435 4.881 2.009 6.603.861 3.445.861 3.732 5.452 4.306 4.879.574 6.314 1.149 6.601 4.019 0 .861.287 2.01 1.722 4.019.861 1.149 1.722 2.01 2.583 2.01 1.148 0 2.009-.861 2.583-1.436 0-.287.287-.287.574-.574 4.018-4.88 25.255-10.909 31.569-10.909 2.009 0 2.296-.861 2.87-4.019.574-2.583 1.148-5.741 4.018-8.038 1.435-1.435 2.87-2.009 4.305-2.871 1.722-1.435 3.444-2.87 3.444-4.306 0-.574 0-1.148-.574-2.009-4.879-5.455-8.036-4.593-10.332-3.445-.861.574-1.435.861-2.009 1.435-2.009 1.723-4.305 3.445-11.766 3.732-5.166.287-7.749-2.009-9.184-4.019-2.296-3.445-2.009-8.038-.574-10.622.574-1.148 1.435-2.296 2.009-3.445.861-1.148 1.722-2.296 1.435-2.87 0-.287-.287-.574-1.148-.862-1.148-.574-2.583-.574-3.731-.574-1.435 0-3.157.287-4.305-.861-1.148-.861-1.435-2.584-1.435-5.167 0-2.584.287-4.593.574-6.603.287-1.722.574-3.732.287-4.019-.287-.287-.861-.574-1.722-.574-2.009-.287-2.87-.574-3.731-.861-.574-.288-.861-.288-7.175.861-3.731.574-6.601 1.435-8.897 2.009-4.017 1.149-6.887 1.723-8.609-.861-.287-.287-.574-.861-.861-1.435-1.722-2.871-2.87-4.306-6.027-3.732-2.87.574-4.879-.862-6.314-2.297-1.148-.861-1.722-1.435-2.583-1.435-.287 0-.861.287-1.435.861l1.148.287z" fill="#00264B"/><path d="M504.018 196.736c-2.009.575-3.444 1.149-5.453 2.01-1.435.574-2.87 1.148-4.879 2.009-.574.288-1.148.575-1.722.575-3.731 1.435-5.74 2.009-10.331-.862-.574-.574-1.435-.861-2.009-1.435-1.722-1.148-4.018-2.584-4.592-2.297-.287 0-.574.575-.861 1.436 0 .287 0 .574-.287.861 2.583 1.435 5.74 3.445 7.462 5.167.861.862 2.583 1.723 4.304 2.584 3.157 1.722 6.888 3.445 9.184 7.464 5.453-6.603 10.906-12.918 14.35-18.086-1.722.287-3.731.287-5.166.574zM484.216 209.655c-1.722-.861-3.731-1.723-4.879-2.871-1.148-1.148-3.157-2.297-4.879-3.445 0 .287.287.574.287.861.574 1.436 1.435 3.445 2.009 6.89 1.148 6.89-1.148 9.474-2.583 10.909l-.574.574c0 .574 1.148 4.019 3.731 6.316 1.435 1.435 3.157 2.009 4.592 1.722 3.444-4.306 7.175-8.612 10.906-13.205-1.722-4.306-5.166-6.029-8.61-7.751z" fill="#EBEEF1"/><path d="M207.842 315.299c2.295.574 7.174 1.148 10.618-.287 1.722-.574 2.296-1.723 3.157-2.584 1.435-2.297 3.157-4.019 8.323-2.584 1.722.574 3.157.862 4.592 1.149 4.592 1.435 7.462 2.009 9.758 1.722 2.009-.574 3.157-.287 4.305 0 1.147.287 2.295.574 4.878 0 1.435-.287 2.87-1.148 4.018-1.722 2.009-1.149 3.731-2.01 5.453-1.149 1.435.862 2.009 2.584 2.296 4.019.861 4.594 2.296 5.455 6.027 7.177.574-3.732 2.296-11.77 5.74-17.798 1.722-3.158 1.435-3.732 1.148-4.019 0-.288-.287-.862-.287-1.723.287-.861.861-1.148 3.731-2.584 1.148-.574 2.296-1.148 3.444-1.435 4.018-1.722 6.313-2.584 8.609-7.464 1.148-2.584 1.435-5.167 1.722-7.464.287-3.732.861-7.464 4.018-10.622 4.592-4.593 5.166-12.057 5.166-12.057v-.287l4.879-8.038c-2.87-3.732-12.054-18.373 0-39.33-10.906-.287-51.946-2.009-58.834-3.444-2.295-.575-6.026-.288-10.044-.288-8.61.288-18.081.575-22.673-4.88-5.453-6.316-5.74-6.89-7.749-11.77a32.613 32.613 0 0 0-1.147-4.306c-2.009-4.593-1.722-6.316-1.722-7.464 0-.574 0-.861-.574-1.723-2.009 2.871-4.592 8.039-5.166 10.335-.574 4.019-2.87 10.909-2.87 11.196l-.574 1.436h-1.148c-.287 0-23.247 0-32.43.574-.861 0-1.722 0-2.87-.287-1.148.861-4.018 3.445-2.87 8.038.574 2.009.861 2.583.861 2.583.287 0 1.148-.287 1.722.288.861.574 1.148 1.722 1.148 3.157.287 2.584 0 4.306-.287 5.742-.287 1.435-.287 2.584 0 4.593.574 1.148 6.6 2.297 9.47 2.871 6.027 1.148 10.332 2.009 10.332 4.88s-1.722 3.732-2.87 4.019c-.861.287-1.435.574-2.009 1.723-.287.574 0 1.148 1.722 2.87 1.435 1.436 3.444 3.445 3.157 6.603-.574 4.306-7.462 19.521-9.184 23.253v.287l.574.287-.287.288c3.157 5.454 2.87 10.334 2.583 14.927-.287 4.594-.574 8.326 3.157 11.771 7.749 6.889 17.794-.575 18.081-.862l1.435-1.148.861 1.723c2.296 4.88 6.314 13.779 6.314 15.502 0 .287.287 1.435.574 2.296 0 .287.287.861.287 1.436l1.435.574z" fill="#00264B"/><path d="M.633 173.483c-.287 1.149-.287 2.297-.574 3.445-.574 8.9 3.157 18.373 7.174 22.105.861.861 2.01 1.723 3.444 1.436 4.88-.575 6.601 2.009 7.75 4.306.573 1.148 1.147 2.296 2.295 2.87.861 1.149 5.166-1.148 8.036-2.87 3.73-2.01 7.749-4.306 10.906-4.306 2.009 0 3.157.861 3.444 1.722 1.722 2.871-.861 8.038-4.018 13.78-.574 1.148-1.148 2.296-1.722 3.157-1.148 2.297-.287 2.871 0 3.158 1.435 1.436 6.314 1.436 9.47 0 3.731-2.009 7.175.287 10.332 2.297 2.01 1.148 4.018 2.584 6.314 2.871 3.731.574 6.888-2.584 10.045-5.742 1.148-1.148 2.296-2.584 3.73-3.445 3.445-2.871 10.046-8.612 12.055-10.622-10.045-4.88-36.736-17.511-43.336-21.817-6.888-4.306-38.17-10.909-45.345-12.345zM310.584 476.636c.574-1.436 1.435-2.871 2.009-4.593 1.435-2.297 2.296-4.306 1.435-4.881-.861-.861-2.009-.861-3.444-1.435-2.008-.574-4.591-1.148-8.322-3.445-1.435-.861-3.157-2.297-4.879-3.445-5.453-4.019-12.341-9.473-19.229-9.473-2.583 0-4.879.287-7.175.287-5.165.287-9.757.574-12.627-1.436-2.87 4.594-11.193 10.622-23.821 19.521-10.618 7.464-26.977 18.947-25.542 22.679 1.722 4.02 5.74 4.594 10.045 4.881 3.444.287 7.175.574 8.323 4.019.861 2.296 5.165 3.732 11.479 5.741 5.453 1.723 12.054 4.307 19.803 8.038 11.479 5.742 8.323 13.206 6.314 18.086-1.722 4.019-1.722 4.593 0 5.455 3.157 1.435 6.026-2.584 10.331-9.474 3.157-4.88 6.601-10.335 10.906-13.205 8.036-5.168 9.758-7.464 16.072-16.938 1.148-1.435 2.296-3.445 3.731-5.167 2.583-4.019 5.739-7.464 8.896-10.909-1.435 0-2.583-.574-3.444-1.435-.574 0-1.435-1.149-.861-2.871zM271.554 391.661l-.287.861c-2.296 4.306-3.444 5.455-4.592 6.603-.861.861-1.722 1.722-2.87 3.445-2.87 4.019-8.323 8.612-12.915 8.899h-2.009c.287 4.593-2.87 9.761-5.165 13.493-.861 1.435-1.722 2.871-2.009 3.732 1.435.574 6.6-.287 9.757-.861 2.009-.287 4.305-.575 6.314-.862h1.148c1.722 0 3.157.575 4.018 1.436.861.861.861 2.009.861 3.445 4.592-1.436 8.036-.575 11.193 0 1.148.287 2.296.574 3.731.861 3.157.287 5.74 2.009 8.322 3.445 2.009 1.148 3.731 2.296 5.74 2.583 1.722.288 2.583-.574 5.166-2.87 1.722-1.723 4.305-4.019 8.036-6.316 5.74-3.732 8.61-1.148 10.332.287 1.435 1.148 1.722 1.435 3.157 0 4.879-4.88 13.201-2.009 16.645-.861 1.148-2.01 2.296-3.445 3.444-5.167-1.435-.288-2.87-1.436-4.018-2.871-1.722-2.584-2.009-4.306-2.296-5.455v-.574s-.861-.287-3.731-.574c-6.313-.574-7.174-2.297-8.322-6.603-.287-1.435-.861-3.445-1.722-6.028-1.148-2.871-1.435-5.455-2.009-7.464-.861-4.306-.861-5.168-5.74-4.593-2.87.287-4.879.861-6.601 1.148-3.444.861-6.027 1.435-10.906-1.436-1.435-.861-2.583-1.722-3.731-2.296-3.157-2.297-4.592-3.158-11.479-2.584-.861.574-1.435.861-2.009 1.148-3.157 1.723-3.157 1.723-5.453 6.029z" fill="#EBEEF1"/><path d="M474.171 152.814c-.861 2.296-1.435 4.306-4.879 6.602-1.148.862-2.296 1.149-3.157 1.436h-.287c3.444 2.584 6.888.287 11.48-3.445 2.583-2.01 4.592-4.019 6.888-4.019 1.435 0 2.583.574 3.157 1.435.861 2.01-.861 4.306-2.87 7.177-.861 1.148-1.722 2.297-2.009 3.158-.287.287-.287.574-.287.574.287.287 1.722.861 2.583 1.148 1.435.575 3.157 1.149 4.879 2.01.287.287.574.287.574.287.287-1.148-.574-4.88-.861-6.316-.287-1.722.287-2.87.861-3.445 2.009-2.009 6.601-1.435 11.192-.574 3.731.574 10.332 1.436 13.489 1.723-.861-6.89-2.583-12.632-4.592-14.354-5.74-4.88-11.192-4.88-18.941-4.88-1.722 0-4.305-1.149-6.888-2.871-2.87 2.871-8.323 8.325-9.471 11.196-.287 1.435-.574 2.297-.861 3.158z" fill="#00264B"/><path d="M492.826 162v.574c1.147 4.594 1.434 8.039-.287 9.474-.574.287-.861.574-1.435.574-.861 0-1.722-.287-2.583-.861-1.435-.861-2.87-1.436-4.305-1.723-2.009-.861-4.018-1.435-4.592-2.87-.287-.862-.287-2.01.287-2.871.574-1.148 1.435-2.297 2.296-3.445.861-1.148 2.009-2.871 2.296-3.732h-.287c-1.148 0-3.157 1.722-5.166 3.158-3.731 3.158-9.184 7.751-14.924 4.019 0 .574.287 1.435.287 2.296 1.148 7.464 1.148 8.613 0 11.771 1.148 1.435 2.296 2.583 3.444 2.583 1.722.287 3.444-1.148 4.879-2.009.287-.287.574-.287.861-.574 2.009-1.436 6.601-2.871 9.471-2.01 1.435.574 2.296 1.435 2.87 2.871.287.861.287 1.722.574 2.584.287 2.583.574 3.732 4.018 4.593.861.287 1.148.287 1.435.287v-.287c.287-1.436.574-4.019 4.304-5.742 4.018-2.009 5.453-2.583 7.175-3.158.861-.287 1.435-.574 2.583-.861 2.87-1.148 7.175-.861 9.758-.287a72.901 72.901 0 0 0 0-11.196c-2.87-.287-10.045-1.148-14.063-2.009-2.87-1.149-8.036-2.01-8.896-1.149z" fill="#EBEEF1"/><path d="M434.566 130.135c2.296 2.584 1.435 5.741.574 8.325-.574 2.01-1.148 4.019-.287 5.455 1.148 2.009 1.435 3.444.287 4.593-.287.287-.574.861.861 3.732 1.148 2.583 2.583 3.158 4.018 4.019 2.583 1.435 4.305 2.871 3.444 8.612-.574 4.593-2.009 6.603-2.87 7.751-.861 1.148-1.148 1.723-.287 3.732v.287c1.148.287 4.879-.861 7.175-1.722 3.157-1.149 6.027-2.01 8.036-1.723 2.296.287 4.018 2.01 5.453 3.158.287.287.574.574 1.148.861 1.148-3.158 1.435-3.732.287-10.621-.861-6.029 0-7.464 3.443-8.613.861-.287 1.722-.574 2.583-1.148 2.296-1.723 2.87-2.871 3.444-5.167.287-.862.574-2.01 1.148-3.158 1.435-3.158 6.888-8.9 9.758-11.77-3.157-2.01-6.601-4.881-10.332-7.751-8.609-6.89-19.228-15.215-23.246-14.067-3.731 1.148-9.758.574-16.359-.574-.574 6.028-.287 13.492 1.722 15.789z" fill="#00264B"/><path d="M361.096 116.068c-1.435 4.88-2.296 6.029-3.731 7.464-1.148 1.148-2.296 2.297-4.305 8.038-2.296 5.742-6.027 8.325-9.758 10.048 3.157 1.722 5.166 4.88 6.314 8.899 2.296 8.613-.574 20.67-2.583 22.105-.287.287 0 1.723 1.148 4.306.574 1.149 1.148 2.584 1.722 4.306 1.148 3.158 2.296 3.158 4.305 3.158 1.148 0 2.87.287 4.018 1.436 2.296 2.296 0 4.88-1.722 6.602-1.148 1.149-2.583 2.584-3.157 4.307h.861c2.009 0 5.453.287 6.314 4.593.574 2.296 2.583 5.741 5.166 8.899.287-1.148 1.148-2.297 1.722-3.732.861-1.722 1.722-3.445 2.009-4.593.287-1.148 0-2.584 0-4.306-.287-2.01-.287-4.593 0-7.751.287-3.732.861-4.306 2.87-5.455.861-.574 2.295-1.148 4.591-3.445 3.444-3.445 4.018-4.019 6.027-4.306.861 0 1.722-.287 4.305-1.435 3.157-1.436 3.731-2.297 4.592-4.019.574-1.436 1.435-3.158 4.592-5.168 4.018-2.87 7.462-2.296 10.045-2.296.574 0 1.722.287 2.009 0 .287-.287.287-.861.287-1.149-.287-.861-1.148-1.722-2.009-2.009-1.148-.287-1.722-.861-2.009-1.435-.861-1.723-.287-4.019.287-6.603.287-.574.287-1.436.574-2.01 0-.574.287-1.148.287-1.435.574-2.297.861-3.158 0-8.325-.861-4.306-.287-5.455 2.009-7.177.861-.574 2.296-1.723 4.018-3.732.861-.861 1.148-1.723 1.435-2.01-.574-.287-1.435-.574-1.722-1.435-.287-.287-.287-1.148 0-2.01.861-2.009 8.322-8.325 12.627-12.057-5.453-1.435-10.618-3.445-14.062-5.167-4.305-2.297-6.314-1.436-8.61-.574-1.722.861-3.731 1.435-6.888.574-2.583-.861-4.879-3.445-7.749-6.603-4.305-5.167-10.332-12.057-20.95-15.215-1.148-.287-2.583-.861-3.444-1.148-.287 6.89 1.148 23.54-1.435 31.865z" fill="#EBEEF1"/><path d="M472.736 228.315c-1.435-2.009-3.157-5.741-1.722-7.751l.861-.861c1.435-1.436 2.87-2.871 1.722-8.325-.574-2.871-1.148-4.594-1.722-6.029-.574-1.435-1.148-2.584-1.148-4.019-.287 0-.574-.287-.574-.287-2.009-1.148-2.87-1.723-3.157-2.01-.287-.287-1.435-.861-2.583-1.435-2.009-1.148-4.879-2.584-8.609-4.88-1.148-.862-2.009-1.149-2.296-1.149 0 .287-.287.287-.287.574-.574 1.149-1.722 3.158-4.592 4.594-2.87 1.435-3.157 2.296-3.444 3.732-.287 1.148-.574 2.583-2.009 4.593-1.148 1.148-2.583 2.871-4.592 2.584-2.009-.575-2.87-2.871-4.018-6.603-.861-2.871-2.009-4.593-2.87-5.455-2.296 2.01-4.592 3.732-7.175 5.168-1.722 1.148-2.87 2.583-3.731 4.019-1.722 2.296-3.444 4.88-8.322 3.732-2.87-.574-5.74-2.01-7.749-2.871-1.435-.574-3.731-1.722-4.305-1.435-.287 0-.574.287-.861.287v3.158c0 5.454-.861 10.621-6.888 14.066-1.435.862-1.435 1.436-1.722 2.01-.861 2.009-1.722 2.871-4.592 2.871-1.148 0-2.296 0-4.018-.287-7.461-.862-8.896-4.02-9.757-7.464-.287-.862-.574-1.723-.861-2.297-1.148-1.435-2.583-2.871-3.731-3.445 0 .287-.287.574-.287.861 0 .287.287.861.574 1.436.287.287.287.574.574.574l.574-.287c.574.861 1.148 1.435 1.435 1.722l-.574.861h.287c.861 1.723.861 3.158.287 4.307-.861 1.722-3.157 2.009-5.166 2.296-1.435.287-2.87.574-3.731 1.148-.574.575-.574.862 1.722 3.445 1.148 1.436 2.583 2.871 3.731 4.881 2.009 3.732 0 5.454-1.148 6.315-.861.574-.861.862-.861 1.436.287 1.148.861 2.009 1.722 3.158 1.435 2.009 3.157 4.88 1.435 8.325-2.296 4.593-4.018 10.334-3.444 12.057.287.574 1.148 1.435 2.009 2.009 1.435.862 3.157 2.01 3.157 4.02.287 1.435-.574 3.157-2.296 4.88-.574.574-1.435 1.148-2.009 1.722 6.601 3.732 12.34-1.148 17.793-5.741 1.435-1.436 2.87-2.584 4.305-3.445 1.722-1.436 4.305-2.584 6.027-1.436 2.296 1.436 1.722 4.881.861 9.187l-.287 1.722v1.149c.574.287 2.87-.862 4.305-1.149 1.722-.574 3.444-1.148 4.879-1.435 2.87-.574 5.74.287 8.323.861 2.009.574 4.304 1.148 5.739.861 1.722-.287 3.444 0 5.166 1.436 2.583 2.009 4.592 6.028 4.592 9.186 0 .287 1.148 0 2.009 0 2.296-.287 6.027-.574 9.758 1.436 6.601 3.445 8.897 6.315 8.323 10.621-.287 2.871-3.444 4.881-6.027 6.603-1.148.861-2.583 1.723-2.87 2.297-.287.574 1.148 3.158 2.009 4.593s1.435 2.584 2.009 4.019c5.453 2.297 8.036 4.88 9.471 6.89 1.722-3.732 3.444-8.612 2.87-12.631-.861-7.177.574-9.187 3.156-12.919.287-.574.861-1.148 1.435-2.009 1.148-1.723.861-7.177.574-12.632-.287-8.038-.861-17.224 2.87-21.53 3.157-3.732 3.444-5.168 4.018-7.464.574-2.01 1.148-4.881 3.444-9.474 1.435-2.871 4.592-7.177 8.036-11.77-1.722-2.871-4.018-4.593-6.027-7.177z" fill="#00264B"/><path d="M296.235 337.404c-.861-1.436-2.009-3.445-4.018-6.029-2.295-2.871-7.748-4.019-12.914-5.167-2.87-.575-5.453-1.149-7.462-2.01l-1.148-.574c-4.592-2.01-7.175-3.158-8.61-9.761-.287-1.722-.574-1.722-.574-1.722-.287 0-1.722.574-2.87 1.148-1.435.574-2.87 1.436-4.592 2.01-3.443.861-5.165.574-6.6 0-.861-.287-1.722-.287-2.87 0-3.157.861-6.314-.287-11.48-1.723-1.435-.287-2.87-.861-4.305-1.148-3.444-.861-4.018-.287-5.166 1.435-.861 1.149-2.009 2.871-4.305 3.732-3.731 1.436-8.61 1.149-11.479.574.861 4.594 1.722 10.335 0 14.928-1.435 4.307-1.148 4.881-.574 7.177.574 1.723 1.148 4.306 1.435 9.474.287 5.741-1.148 10.047-2.583 13.779-1.722 4.881-2.87 8.613-.287 13.493 2.009 4.019 8.609 4.88 14.923 5.741 7.462 1.149 15.211 2.297 14.637 9.187-.574 6.029 2.296 8.038 5.453 10.335 1.722 1.148 3.731 2.87 5.453 4.88.287.287.287.287.574.287l.287-.287-.287.574c.574.287 1.435.574 2.296.574 3.443-.287 8.035-4.306 10.618-7.751 1.435-2.009 2.296-2.871 3.157-3.732 1.148-1.435 2.009-2.296 4.305-6.028l.287-.862c2.583-4.88 2.87-5.167 6.601-7.464.574-.287 1.435-.861 2.296-1.435 3.444-2.297 3.731-3.445 4.305-5.454.287-1.149.574-2.584 1.722-4.019 1.148-2.01 1.722-3.158 2.009-4.307.574-1.435.861-2.583 2.296-4.88l.574-.861c2.296-3.445 2.87-4.306 8.035-6.316 3.731-1.722 2.009-8.038 2.009-8.038v-1.148c.287-.861.574-2.01.574-2.871l-1.148-.861c.287-.574.861-.861 1.148-1.436v-.287c0-.287-.861-1.435-1.722-3.157zM177.707 240.946c-1.435-1.435-3.444-3.445-2.296-6.315 1.148-2.01 2.583-2.871 3.444-3.158.861-.287.861-.574.861-1.148-.574-.575-5.166-1.436-8.036-2.01-6.027-1.148-11.192-2.297-11.766-5.167-.574-2.584-.287-4.019-.287-5.742.287-1.435.287-2.871.287-4.88v-.861c-2.296 0-3.157-2.01-3.731-4.594-1.148-4.306.574-7.751 2.296-9.76-3.444-1.436-7.175-3.445-10.906-5.742-4.879-2.87-9.758-6.028-14.063-6.602-4.305-.575-6.601 2.87-9.471 8.038-2.008 3.732-4.304 7.464-8.035 8.325-2.583.287-4.305 1.148-6.027 1.435-2.87.861-4.879 1.723-8.61.861-2.296-.574-4.305 1.723-5.453 3.732h5.453c1.435 0 2.87.575 3.731 1.436 2.296 2.296 2.009 6.89 1.435 12.344-.287 2.297-.287 4.593-.287 6.89 0 7.177 11.193 12.057 20.95 16.363 1.722.861 3.444 1.436 5.166 2.297 4.592 2.009 7.749 3.158 10.045 3.732 3.731 1.148 6.027 1.722 9.471 5.167 1.722 1.723 4.018 2.297 6.314 2.871 3.731.861 8.322 2.01 13.201 7.751 2.87-6.316 7.749-17.512 8.036-20.669.574-2.01-.287-3.158-1.722-4.594zM138.676 44.3c4.305.573 4.592 3.731 4.879 6.315.287 1.722.287 3.445 1.435 4.88 2.296 3.445 2.296 4.593 2.296 7.464 0 1.148 0 2.584.287 4.88.287 4.02 1.435 6.316 2.296 8.613.861 2.01 1.435 3.445 1.148 5.167 0 .287-.287.861-.287 1.148-.574 1.436-.861 3.445 0 4.88 1.148 1.723 4.018 2.871 8.323 3.733 1.722.287 2.87.287 3.157-.287.861-1.149-.861-5.455-1.722-7.751-1.435-3.445-2.296-5.742-.861-7.177.574-.862 1.722-.862 3.157-.575 6.027 2.01 13.202 0 16.071-2.009.861-.574 1.148-1.435 1.722-2.297 1.435-2.01 3.157-4.593 8.036-3.732 3.157.575 5.166-.86 6.314-2.01.574-2.87 1.148-5.454 1.722-7.176-.861.287-2.009.574-2.87.574-8.61 0-8.61-7.464-8.61-18.947 0-12.344-3.157-20.67-8.323-22.105-1.434-.287-2.295-1.148-2.869-2.01-1.148-2.296 0-4.88 1.435-7.75 1.434-3.732 2.582-6.316.861-7.751-1.722-1.436-4.305 1.435-8.036 5.167-3.444 3.732-7.175 7.464-10.906 7.464-2.009 0-3.444.861-5.166 2.297-3.444 2.296-8.036 5.454-20.376 3.732-7.462-1.149-11.193-2.584-13.202-4.02.861.862 2.009 2.297 2.87 3.158 3.157 3.732 6.601 7.464 6.027 10.91-.287 2.009 0 3.444.287 5.167.287 2.296.861 5.167 0 10.047 2.583-.287 7.175-.287 10.905 0z" fill="#EBEEF1"/><path d="M93.045 206.21c1.148-2.584 4.305-7.177 9.183-6.029 2.87.575 4.305 0 6.888-.574 1.722-.574 3.731-1.148 6.314-1.722 2.296-.287 4.018-3.445 6.027-6.603 2.583-4.593 6.027-10.335 12.628-9.473 4.878.574 10.331 3.732 15.21 6.889 5.453 3.158 10.906 6.603 15.211 6.316 8.036-.574 26.69-.574 31.569-.574.574-2.01 2.009-6.89 2.583-9.761.574-3.732 4.305-10.047 6.027-12.344-3.731-4.593-4.018-8.325-.861-11.77 2.009-2.297 18.654-39.904 18.654-45.932 0-2.584.287-4.593.574-6.316.574-2.584.574-3.732-.287-4.88-.861-1.148-2.87-1.723-4.878-2.584-2.009-.574-4.592-1.435-6.314-3.158-.861-.574-1.722-1.148-2.87-2.01-4.018-2.583-9.471-6.315-12.915-14.353-1.435-3.445-1.722-7.464-1.435-11.483-1.722.861-3.731 1.148-6.314.861-3.157-.574-3.731.574-5.166 2.584-.574.861-1.435 2.01-2.296 2.87-3.156 2.584-10.905 5.168-18.367 2.584.287.862.861 2.297 1.148 3.445 1.435 4.02 3.444 8.326 1.148 10.91-.861 1.148-2.296 1.722-4.018 1.722-.574 0-1.435 0-2.296-.288-5.453-.86-8.897-2.583-10.332-5.167-1.722-2.584-.861-5.454-.287-7.177 0-.287.287-.574.287-.861.287-.861-.287-2.01-.861-3.445-.861-2.01-2.296-5.167-2.583-9.473-.287-2.297-.287-3.732-.287-4.88 0-2.584 0-3.158-2.009-6.03-1.435-2.296-1.722-4.305-1.722-6.315-.287-2.87-.574-3.445-2.296-3.732-3.73-.574-8.896-.287-11.192 0-2.87 10.048-17.794 15.215-25.543 15.215-7.748 0-12.34-5.741-16.932-12.057-3.157-4.306-3.157-4.306-11.193-.574-1.435.574-2.87 1.148-4.592 2.01-7.749 3.444-12.054 1.435-14.924 0-2.008-.862-2.295-.862-2.87-.288-.86.861 0 2.01 2.01 4.593 1.434 2.01 2.87 3.732 2.583 5.455 0 .861-.575 1.435-1.435 2.01-1.149.86-2.01 1.435-2.87 1.722-1.722.861-3.157 1.722-5.453 5.454-1.435 2.297 1.722 7.751 4.305 12.345 3.444 6.028 6.6 11.77 4.304 15.502-1.434 2.296-2.295 9.186-3.443 15.789-2.01 13.205-3.444 21.243-7.175 22.392-1.722.574-3.157.287-4.305-.574-2.01-1.436-2.87-4.019-3.444-5.742-2.87 1.148-9.184 3.445-16.933 4.593-4.879.862-5.165 1.723-5.74 2.871-.573 1.435-1.147 3.445-5.165 5.742-6.601 3.732-2.01 16.363-2.01 16.363l.575 1.148-1.148.574c-.287 0-3.157 2.01-5.166 8.038 8.61 2.01 39.892 8.613 47.067 13.493 7.175 4.593 38.457 19.521 45.632 22.679z" fill="#EBEEF1"/><path d="M199.232 66.404s-.287.574-1.148 1.148l-.574-.574c-.574 4.306-.861 8.9.861 12.919 2.87 7.176 8.036 10.621 11.767 12.918 1.148.861 2.296 1.435 3.157 2.01 1.435 1.148 3.444 2.009 5.453 2.583 2.295.861 4.878 1.723 6.313 3.445 1.722 2.297 1.435 4.593.861 7.464-.287 1.722-.574 3.445-.574 5.742 0 6.602-16.932 45.645-19.515 48.228-1.148 1.149-2.87 2.871 1.722 8.326 2.583 2.87 2.87 3.731 2.583 5.454 0 .861-.287 2.297 1.435 6.029.574 1.435 1.148 2.583 1.435 3.732 2.009 4.593 2.009 4.88 7.174 10.908 3.731 4.307 12.628 4.019 20.377 3.732 4.018-.287 8.036-.287 10.906.287 6.601 1.436 51.658 3.158 59.407 3.445 1.148-3.157 4.305-11.77 9.471-15.789 2.296-1.722 1.722-4.019.861-7.751-.861-3.445-1.722-7.177 1.148-10.335 2.009-2.583 4.879-4.019 7.749-5.454 3.731-2.01 6.888-3.445 6.888-6.89.287-2.584-1.722-4.306-3.731-5.741-2.296-1.723-4.879-3.732-3.157-7.464 1.148-2.584 4.305-3.732 7.462-4.881 4.591-1.435 9.757-3.157 12.34-9.76 2.583-6.316 4.018-8.038 5.166-9.187.861-.861 1.722-1.722 2.87-6.315 2.583-8.325.574-26.985 0-31.292-2.87-.86-5.166-2.01-7.175-2.583-6.314-2.297-9.757-3.732-17.793-3.732-14.924 0-18.081-8.038-18.081-14.641 0-5.167-5.166-10.048-10.332-14.928l-3.157-3.158c-3.443-3.445-3.156-9.186-3.156-14.928 0-5.741 0-11.483-3.444-13.492-.861-.575-1.435-.575-2.296-.287-2.583.86-5.453 5.741-8.036 10.621-2.296 4.306-4.879 8.9-8.036 12.057-6.601 6.603-19.515 3.445-27.264 1.436-1.722-.574-3.731-.861-4.305-.861-2.87 0-6.314 3.445-12.054 9.186-4.305 4.306-6.314 3.158-8.61 1.436-1.148-.862-2.296-1.723-4.878-1.723-3.157 0-7.749 2.87-12.341 5.455-2.583 1.435-4.879 2.87-7.175 4.019-.574 1.148-1.722 4.593-2.296 8.612l1.722.574z" fill="#EBEEF1"/><path d="M307.141 333.384c.287-2.009.861-4.306 4.018-6.315 4.305-2.584 6.314-2.297 9.758-1.436 1.435.287 3.156.862 5.739 1.149 8.323.861 14.063-.575 18.942-4.594 2.296-2.009 2.009-2.296 1.722-3.444-.287-1.149-.861-2.871.574-5.455 1.435-2.297.574-4.306-1.435-7.751-.861-1.722-2.009-3.732-2.87-6.029-.861-2.009-1.148-3.732-.287-4.88.861-1.148 2.296-1.435 3.731-1.435 1.722-.287 3.731-.287 6.027-1.723 1.722-1.148 2.009-1.722 2.009-1.722 0-.287-.287-.861-.861-1.436-.861-1.435-2.296-3.444-2.009-6.602.574-4.306 3.731-4.594 6.314-4.881 2.296-.287 4.592-.574 6.887-2.87 1.435-1.436 1.435-2.297 1.435-2.584 0-.574-1.148-1.148-2.008-2.01-1.148-.861-2.583-1.722-3.157-3.444-.861-2.584.574-7.177 1.722-10.622-.574 0-.861-.287-1.435-.574-1.722-.575-4.592-1.436-9.184-1.436-4.305 0-5.166 1.148-5.453 1.148-.287.288 0 .862 0 1.149l.574 1.148-2.296 1.435-1.148-1.722c-.574-.861-2.296-.574-5.166 0-1.435.287-2.87.574-4.305.574-3.157.287-4.592-.574-5.74-1.722-.861-.574-1.148-1.149-3.444-.574-1.722.287-2.295.861-2.582 1.435-1.722 2.009-3.444.861-7.175-1.723-2.583-1.722-4.018-2.87-5.166-4.019l-3.731 6.029c-.287 1.722-1.148 8.899-6.027 13.78-2.583 2.583-2.87 5.167-3.157 8.899-.287 2.584-.574 5.454-1.722 8.325-2.583 6.316-5.74 7.464-10.332 9.187-1.148.287-2.009.861-3.443 1.435-.861.287-1.435.574-1.722.861.287 1.149 0 2.871-1.435 6.029-3.157 5.741-4.879 14.354-5.453 17.512 1.722.574 3.731.861 5.74 1.435 5.452 1.148 11.479 2.296 14.636 6.316a62.97 62.97 0 0 1 4.305 6.315c.861 1.436 1.148 2.297 1.722 2.584.287.287.574.287.574.574.287-.287.861-.287 1.148-.574 4.592-1.723 4.879-3.445 5.166-5.742z" fill="#00264B"/><path d="M396.97 376.159c2.583.574 4.592.861 6.601-.287 4.017-2.584 4.017-2.584 6.887-5.168 1.435-1.435 2.583-3.157 3.444-4.88.861-1.435 1.722-3.158 2.87-4.593 1.435-1.436 1.722-2.297 2.009-3.158.287-.861.861-2.01 1.722-3.445.574-.861.574-1.435.574-2.009 0-2.01.574-3.158 4.305-4.881 4.018-2.009 4.018-4.019 4.305-8.899 0-1.148 0-2.01.287-3.445.574-7.177 1.435-11.483 5.166-13.78 1.148-.574 2.296-1.148 3.157-1.435 2.296-.861 2.296-.861 2.009-1.722-.287-1.149-1.148-2.584-2.009-4.019-1.722-2.871-3.157-5.455-2.009-7.752.574-1.148 2.296-2.009 3.731-3.157 2.009-1.149 4.592-2.871 4.592-4.307.287-2.296 0-4.019-6.601-7.751-2.87-1.435-5.74-1.148-8.036-.861-1.722.287-3.444.287-4.592-.574-.574-.574-.861-1.435-.861-2.297 0-2.296-1.722-5.454-3.444-6.889-.574-.575-1.435-1.149-2.583-.862-2.296.575-4.592 0-7.175-.861-2.296-.574-4.879-1.435-7.174-.861-1.435.287-2.87.861-4.305 1.435-3.157 1.149-5.74 2.01-7.462.574-1.435-1.148-1.148-3.157-1.148-4.019l.287-1.722c.287-2.01.861-5.454.287-6.029 0 0-.861.287-2.583 1.436-1.435.861-2.583 2.009-4.305 3.445-5.74 5.167-13.776 11.77-22.959 4.88-1.148.287-2.296.574-3.444.574-2.583.287-3.444.574-3.731 2.297-.287 2.009.574 3.158 1.435 4.593.861 1.148 1.435 2.297 1.148 3.732-.287 1.148-1.435 2.297-3.444 3.732-2.87 1.722-5.453 2.009-7.175 2.297-.574 0-1.435-.001-1.435.287 0 0 0 .574.574 2.296.861 2.297 1.722 4.019 2.583 5.742 1.722 3.445 3.444 6.89 1.435 10.622-.861 1.435-.574 2.296-.287 3.157.574 2.01.861 3.732-2.583 6.603-5.166 4.593-12.054 6.316-21.238 5.455-2.869-.288-4.591-.862-6.313-1.149-3.157-.861-4.018-.861-7.462 1.149-2.009 1.148-2.296 2.583-2.583 4.306-.287 1.722-.861 4.019-3.157 5.741.287.287.574.574 1.148.861 1.435 1.149 2.296 2.01 3.731 1.723 5.74-1.436 8.036 2.584 9.471 5.167.287.574.574.861.861 1.149.574.574 1.435.574 5.165-.575 2.296-.574 5.166-1.435 9.184-2.009 6.888-1.148 7.462-1.148 8.897-.574.287.287.861.287 2.583.574 1.722 0 3.157.574 3.731 1.722 1.148 1.723.861 3.732.574 6.603-.287 1.723-.574 3.732-.574 6.029 0 2.296.287 2.87.574 2.87.287.287 1.148.287 2.009.287 1.435 0 3.444-.287 5.166.862 1.435.861 2.296 1.722 2.583 2.87.574 1.723-.574 3.445-2.009 5.455-.574.861-1.435 2.009-1.722 2.871-.861 2.009-1.148 5.167.287 7.751 1.148 2.009 3.444 2.87 6.314 2.87 6.313-.287 8.035-1.722 10.044-3.157.861-.575 1.435-1.149 2.583-1.723 1.722-.861 3.157-1.148 4.879-1.148 1.148-.861 5.166-3.158 8.897-4.019 2.583-.574 4.592-.287 6.314 0z" fill="#00264B"/><rect width="10.169" height="10.471" rx=".853" transform="matrix(.86603 -.5 .86603 .5 390 336.352)" fill="#073766" filter="url(#a)"/><g clip-path="url(#b)"><path d="M397.912 330.257v5.071l.713 1.068a.388.388 0 0 0 .646 0l.712-1.068v-5.071a5.692 5.692 0 0 1-1.035.099c-.354 0-.7-.037-1.036-.099zM398.948 320a4.66 4.66 0 1 0-.001 9.32 4.66 4.66 0 0 0 .001-9.32zm0 2.46a2.203 2.203 0 0 0-2.201 2.2.39.39 0 0 1-.777 0 2.981 2.981 0 0 1 2.978-2.977.388.388 0 0 1 0 .777z" fill="#E27031"/></g><rect width="14.619" height="15.054" rx="1.227" transform="matrix(.86603 -.5 .86603 .5 346 400.507)" fill="#073766" filter="url(#c)"/><g clip-path="url(#d)"><path d="M357.374 391.746v7.289l1.025 1.537a.559.559 0 0 0 .929 0l1.024-1.537v-7.289c-.484.089-.98.142-1.489.142a8.214 8.214 0 0 1-1.489-.142zM358.863 377a6.7 6.7 0 1 0 .001 13.4 6.7 6.7 0 0 0-.001-13.4zm0 3.536a3.167 3.167 0 0 0-3.164 3.164.558.558 0 0 1-1.116 0c0-2.36 1.92-4.281 4.28-4.281a.56.56 0 0 1 0 1.117z" fill="#E27031"/></g><rect width="12.558" height="12.932" rx="1.054" transform="matrix(.86603 -.5 .86603 .5 394 362.194)" fill="#073766" filter="url(#e)"/><g clip-path="url(#f)"><path d="M403.771 354.667v6.262l.88 1.32a.48.48 0 0 0 .798 0l.88-1.32v-6.262a7.01 7.01 0 0 1-1.279.122c-.437 0-.864-.045-1.279-.122zM405.05 342a5.755 5.755 0 1 0 0 11.51 5.755 5.755 0 0 0 0-11.51zm0 3.037a2.72 2.72 0 0 0-2.718 2.718.48.48 0 0 1-.959 0 3.682 3.682 0 0 1 3.677-3.677.48.48 0 0 1 0 .959z" fill="#E27031"/></g><rect width="11.468" height="11.81" rx=".962" transform="matrix(.86603 -.5 .86603 .5 392 383.441)" fill="#073766" filter="url(#g)"/><g clip-path="url(#h)"><path d="M400.923 376.568v5.719l.804 1.205c.173.26.555.26.729 0l.803-1.205v-5.719c-.379.07-.769.111-1.168.111-.399 0-.789-.041-1.168-.111zM402.091 365a5.256 5.256 0 1 0 0 10.512 5.256 5.256 0 0 0 0-10.512zm0 2.774a2.484 2.484 0 0 0-2.482 2.482.439.439 0 0 1-.876 0 3.362 3.362 0 0 1 3.358-3.358.438.438 0 1 1 0 .876z" fill="#E27031"/></g><defs><filter id="a" x="383.607" y="329.811" width="30.661" height="23.472" filterUnits="userSpaceOnUse" color-interpolation-filters="sRGB"><feFlood flood-opacity="0" result="BackgroundImageFix"/><feColorMatrix in="SourceAlpha" values="0 0 0 0 0 0 0 0 0 0 0 0 0 0 0 0 0 0 127 0" result="hardAlpha"/><feOffset dy="5.119"/><feGaussianBlur stdDeviation="3.413"/><feComposite in2="hardAlpha" operator="out"/><feColorMatrix values="0 0 0 0 0.0156863 0 0 0 0 0.0901961 0 0 0 0 0.168627 0 0 0 0.25 0"/><feBlend in2="BackgroundImageFix" result="effect1_dropShadow_424_257"/><feBlend in="SourceGraphic" in2="effect1_dropShadow_424_257" result="shape"/></filter><filter id="c" x="336.81" y="391.104" width="44.078" height="33.743" filterUnits="userSpaceOnUse" color-interpolation-filters="sRGB"><feFlood flood-opacity="0" result="BackgroundImageFix"/><feColorMatrix in="SourceAlpha" values="0 0 0 0 0 0 0 0 0 0 0 0 0 0 0 0 0 0 127 0" result="hardAlpha"/><feOffset dy="7.36"/><feGaussianBlur stdDeviation="4.906"/><feComposite in2="hardAlpha" operator="out"/><feColorMatrix values="0 0 0 0 0.0138889 0 0 0 0 0.0912963 0 0 0 0 0.166667 0 0 0 1 0"/><feBlend in2="BackgroundImageFix" result="effect1_dropShadow_424_257"/><feBlend in="SourceGraphic" in2="effect1_dropShadow_424_257" result="shape"/></filter><filter id="e" x="386.105" y="354.116" width="37.866" height="28.988" filterUnits="userSpaceOnUse" color-interpolation-filters="sRGB"><feFlood flood-opacity="0" result="BackgroundImageFix"/><feColorMatrix in="SourceAlpha" values="0 0 0 0 0 0 0 0 0 0 0 0 0 0 0 0 0 0 127 0" result="hardAlpha"/><feOffset dy="6.322"/><feGaussianBlur stdDeviation="4.215"/><feComposite in2="hardAlpha" operator="out"/><feColorMatrix values="0 0 0 0 0.0156863 0 0 0 0 0.0901961 0 0 0 0 0.168627 0 0 0 0.25 0"/><feBlend in2="BackgroundImageFix" result="effect1_dropShadow_424_257"/><feBlend in="SourceGraphic" in2="effect1_dropShadow_424_257" result="shape"/></filter><filter id="g" x="384.79" y="376.064" width="34.579" height="26.472" filterUnits="userSpaceOnUse" color-interpolation-filters="sRGB"><feFlood flood-opacity="0" result="BackgroundImageFix"/><feColorMatrix in="SourceAlpha" values="0 0 0 0 0 0 0 0 0 0 0 0 0 0 0 0 0 0 127 0" result="hardAlpha"/><feOffset dy="5.774"/><feGaussianBlur stdDeviation="3.849"/><feComposite in2="hardAlpha" operator="out"/><feColorMatrix values="0 0 0 0 0.0156863 0 0 0 0 0.0901961 0 0 0 0 0.168627 0 0 0 0.25 0"/><feBlend in2="BackgroundImageFix" result="effect1_dropShadow_424_257"/><feBlend in="SourceGraphic" in2="effect1_dropShadow_424_257" result="shape"/></filter><clipPath id="b"><path fill="#fff" transform="translate(390.663 320)" d="M0 0h16.569v16.569H0z"/></clipPath><clipPath id="d"><path fill="#fff" transform="translate(346.953 377)" d="M0 0h23.82v23.82H0z"/></clipPath><clipPath id="f"><path fill="#fff" transform="translate(394.818 342)" d="M0 0h20.463v20.463H0z"/></clipPath><clipPath id="h"><path fill="#fff" transform="translate(392.748 365)" d="M0 0h18.687v18.687H0z"/></clipPath></defs></svg>