<svg data-name="Camada 1" xmlns="http://www.w3.org/2000/svg" width="20" height="20" viewBox="0 0 20 20" fill="none"><path d="M0 20l1.38-5A10.082 10.082 0 0 1 0 9.931C0 4.483 4.483 0 9.966 0 15.448 0 20 4.483 20 9.931 20 15.379 15.448 20 9.966 20c-1.725 0-3.38-.552-4.863-1.38L0 20z" fill="#EDEDED"/><path d="M5.38 16.828l.31.172c1.275.793 2.758 1.276 4.31 1.276 4.517 0 8.276-3.759 8.276-8.345s-3.759-8.207-8.31-8.207c-4.552 0-8.242 3.655-8.242 8.207 0 1.586.448 3.138 1.276 4.448l.207.31-.793 2.897 2.965-.758z" fill="#55CD6C"/><path d="M7.31 5.31l-.655-.034a.783.783 0 0 0-.552.207c-.31.276-.827.793-.965 1.483C4.897 8 5.276 9.24 6.172 10.483c.897 1.241 2.621 3.241 5.656 4.103.965.276 1.724.104 2.344-.276.483-.31.793-.793.897-1.31l.103-.483a.347.347 0 0 0-.172-.38l-2.172-1a.329.329 0 0 0-.414.104l-.862 1.104a.268.268 0 0 1-.276.069c-.586-.207-2.552-1.035-3.62-3.104-.035-.103-.035-.207.034-.276l.827-.93c.07-.104.104-.242.07-.345l-1-2.242a.3.3 0 0 0-.277-.207z" fill="#FEFEFE"/></svg>