<?xml version="1.0" encoding="utf-8"?>
<svg version="1.1" id="Camada_1" data-name="Camada 1" xmlns="http://www.w3.org/2000/svg" width="516" height="537" viewBox="0 0 516 537" 
style="enable-background:new 0 0 516 537;" xml:space="preserve" fill="none">
<path d="M321.203 432.139C317.76 435.584 315.464 433.574 314.029 432.426C312.307 430.99 311.159 430.129 307.428 432.426C303.984 434.722 301.688 436.732 299.966 438.454C297.67 440.751 295.948 442.186 293.365 442.186C293.078 442.186 292.504 442.186 291.93 442.186C289.634 441.612 287.625 440.464 285.329 439.316C283.033 437.88 280.45 436.732 277.868 436.158C276.433 435.871 274.998 435.584 273.85 435.297C270.406 434.435 267.536 433.574 262.657 435.871C262.37 436.732 262.083 437.88 261.509 438.741C260.935 440.751 260.074 442.761 259.5 445.057L259.787 445.344L260.074 445.631L259.5 445.918C260.935 447.928 265.527 447.641 270.693 447.067C272.989 447.067 275.572 446.78 278.155 446.78C285.903 446.78 293.365 452.234 299.105 456.827C300.827 457.976 302.262 459.411 303.697 460.272C306.854 462.282 309.15 462.856 311.159 463.143C312.881 463.43 314.316 463.717 315.751 465.152C318.621 467.449 316.612 470.894 314.89 473.765C314.029 475.2 313.455 476.348 313.168 477.497C313.168 477.784 313.168 477.784 313.168 477.784C313.455 478.071 315.464 478.358 317.473 478.071C320.916 474.626 324.073 471.468 326.943 468.884C329.813 466.301 332.396 464.004 333.544 462.282C335.553 459.698 334.979 456.827 333.831 451.947C332.97 448.789 332.396 445.057 332.396 440.751C332.396 437.306 333.257 434.148 334.118 431.565C331.535 430.703 324.647 428.694 321.203 432.139Z" fill="#EBEEF1"/>
<path d="M507.176 178.651C506.028 179.225 505.167 179.512 504.306 179.799C502.871 180.373 501.436 180.66 497.705 182.67C495.409 183.818 495.409 184.966 495.122 186.115C495.122 186.976 494.835 187.837 493.974 188.698C493.4 188.985 492.826 189.272 491.965 189.272C491.391 189.272 490.53 189.272 489.956 188.985C484.216 187.837 483.929 184.679 483.355 182.096C483.355 181.521 483.068 180.66 482.781 179.799C482.781 179.512 482.494 179.225 481.92 178.938C480.198 178.364 476.754 179.512 475.319 180.373L474.745 180.947C473.31 182.096 470.727 184.105 467.57 183.531C465.849 183.244 464.127 182.096 462.692 180.373C462.692 180.373 462.405 180.373 462.405 180.66C462.118 180.66 462.118 180.66 461.831 180.66C460.683 180.66 459.535 179.512 458.387 178.651C457.239 177.502 456.091 176.354 454.656 176.354C453.508 176.067 450.351 177.215 447.768 178.076C444.898 178.938 442.602 179.512 440.88 179.799C442.315 182.67 442.028 184.105 438.871 187.837C437.149 189.847 435.14 191.569 433.418 193.292C434.566 194.44 436.288 196.449 437.149 199.894C438.01 203.339 438.584 204.2 438.871 204.2C438.871 204.2 439.445 203.913 440.306 202.765C441.454 201.617 441.454 200.468 441.741 199.607C442.028 197.311 442.602 195.875 446.62 193.866C448.916 192.717 449.49 191.569 450.064 190.421C450.638 189.56 450.925 188.698 452.073 188.411C453.508 188.124 454.656 188.698 456.665 190.134C460.109 192.43 462.979 193.866 464.988 195.014C466.71 195.875 467.571 196.449 468.145 197.023C468.431 197.311 469.292 197.885 470.44 198.459C471.014 196.449 471.875 195.301 473.023 194.727C475.032 193.866 477.328 195.301 480.485 197.311C481.059 197.598 481.633 198.172 482.494 198.459C485.938 200.755 486.799 200.181 490.243 199.033C490.817 198.746 491.391 198.459 491.965 198.459C493.974 197.885 495.409 197.024 496.557 196.736C498.566 195.875 500.288 195.301 502.584 194.727C505.454 194.153 508.61 194.44 510.332 194.44C512.628 190.421 514.063 184.966 514.924 179.225C513.202 178.076 509.184 177.789 507.176 178.651Z" fill="#00264B"/>
<path d="M312.593 245.826L313.454 246.688L313.167 247.262C313.454 247.836 314.602 248.984 318.333 251.568C318.907 252.142 320.916 253.29 321.49 253.577C322.351 252.716 323.499 251.855 325.795 251.281C329.239 250.707 330.674 251.568 331.822 252.716C332.683 253.29 332.97 253.865 335.266 253.577C336.988 253.29 338.136 253.29 339.571 253.003C341.867 252.716 343.876 252.429 345.311 252.716C345.311 252.716 345.311 252.429 345.598 252.429C346.746 250.707 349.329 249.558 353.633 249.558C353.633 249.558 353.633 249.558 353.92 249.558C359.086 249.558 362.243 250.707 363.965 251.281C364.539 251.568 365.4 251.855 365.4 251.568C365.4 251.568 365.687 251.281 365.974 250.42C367.122 248.41 366.261 247.262 364.826 244.965C363.965 243.817 363.104 242.382 362.817 240.946C362.243 238.362 363.678 237.214 364.539 236.353C365.4 235.492 365.687 235.492 364.826 233.769C363.965 232.047 362.817 230.898 361.669 229.463C359.66 227.166 357.077 224.583 359.947 221.712C361.382 220.564 363.391 219.99 365.113 219.703C365.974 219.415 367.696 219.128 367.983 218.841C367.983 218.841 367.983 218.267 367.696 217.693C367.122 217.406 366.261 216.258 365.687 215.109C362.817 211.664 357.938 205.636 357.077 201.33C356.79 199.607 355.929 199.32 353.633 199.32C352.485 199.32 351.051 199.32 350.19 198.172C349.329 197.024 349.903 195.588 350.19 195.301C351.051 193.004 352.772 191.569 353.92 190.134C354.494 189.56 355.642 188.411 355.642 188.124C355.068 187.55 354.494 187.55 353.346 187.55C351.337 187.55 348.181 187.263 346.459 182.383C345.885 180.66 345.311 179.512 344.737 178.364C343.302 174.632 342.154 172.335 344.45 170.613C345.311 169.177 348.468 157.407 345.311 149.656C343.876 146.211 341.58 144.202 338.423 143.34C335.84 144.202 333.544 145.063 332.97 146.498C332.396 147.934 332.97 148.508 335.266 150.23C337.562 151.953 340.432 154.249 340.145 158.555C339.858 163.436 335.553 165.732 331.535 167.742C328.952 169.177 326.369 170.325 324.647 172.335C322.925 174.345 323.499 176.928 324.073 180.086C324.934 183.818 325.795 187.837 322.064 190.708C316.611 195.014 313.454 206.21 313.167 206.21L312.88 207.358H312.593C298.818 231.186 312.593 245.826 312.593 245.826Z" fill="#EBEEF1"/>
<path d="M421.651 360.37C421.364 361.231 420.79 362.092 419.355 363.527C418.207 364.676 417.633 366.111 416.772 367.547C415.624 369.556 414.476 371.566 412.754 373.288C409.597 375.872 409.597 375.872 405.292 378.742C402.423 380.752 399.266 379.891 396.396 379.317C394.674 379.03 392.952 378.742 391.804 379.03C390.082 379.317 388.073 380.178 386.351 381.039C388.073 381.9 389.795 383.336 391.517 385.058C392.665 386.494 393.239 387.929 392.952 389.651C392.952 390.226 392.378 391.087 392.091 391.661H392.378C394.387 391.374 396.396 390.8 398.979 389.938C402.136 388.79 405.005 388.79 407.588 388.79C411.606 388.503 415.911 388.503 423.086 385.058C431.122 381.039 431.696 377.881 432.557 373.288C432.844 372.14 433.131 370.704 433.418 369.269C431.409 369.269 428.539 368.408 425.095 365.25C423.66 363.24 422.225 361.518 421.651 360.37Z" fill="#00264B"/>
<path d="M413.902 125.541C414.476 125.828 415.337 126.116 415.624 127.264C415.911 128.412 415.337 129.848 413.329 132.431C411.32 134.728 409.598 135.876 408.737 136.45C407.302 137.311 407.302 137.312 407.876 140.469C408.737 145.924 408.45 147.359 407.876 150.23C407.876 150.517 407.589 151.091 407.589 151.665C407.302 152.239 407.302 153.101 407.015 153.962C406.728 155.11 405.867 157.694 406.441 157.981C408.45 158.555 410.459 159.99 411.033 162.287C411.607 164.01 411.033 165.445 410.172 166.593C409.024 167.742 407.302 167.742 405.58 167.454C403.571 167.167 400.701 166.88 397.831 169.177C395.535 170.899 394.961 172.048 394.387 173.196C393.526 174.918 392.665 176.641 388.36 178.65C385.49 179.799 384.055 180.086 383.194 180.086C382.333 180.086 382.046 180.373 378.889 183.531C376.306 186.114 374.584 186.976 373.723 187.55C372.575 188.124 372.575 188.124 372.288 190.708C372.001 193.578 372.288 195.875 372.288 197.885C372.288 199.894 372.575 201.329 372.288 203.052C372.001 204.487 371.141 206.497 370.28 208.506C369.993 208.793 369.993 209.08 369.706 209.655C371.141 210.516 373.436 212.238 374.871 214.248C375.732 215.396 376.019 216.544 376.306 217.406C376.88 219.702 377.454 221.999 383.768 222.573C388.647 223.147 388.647 222.86 388.934 221.999C389.221 221.138 389.795 219.415 392.091 218.267C396.109 216.257 397.257 213.1 397.257 206.784C397.257 205.636 397.257 204.774 397.257 204.2C397.257 202.478 397.257 201.904 397.831 201.329C398.405 200.755 398.979 200.755 399.266 200.755C399.553 200.755 399.553 200.755 399.84 200.755C401.562 199.894 403.858 201.042 406.728 202.478C408.737 203.626 411.32 204.487 413.902 205.348C416.485 205.923 417.346 205.061 418.781 202.765C419.929 201.329 421.077 199.32 423.66 197.885C428.252 195.301 432.844 191.282 437.723 186.114C440.306 183.244 440.306 183.244 439.158 181.234C438.871 180.66 438.584 179.799 438.01 178.65C438.01 178.363 437.723 178.363 437.723 178.076V177.789C436.575 174.631 437.149 173.196 438.297 171.474C439.158 170.325 440.019 168.603 440.593 164.871C441.167 160.852 440.593 160.565 438.871 159.416C437.436 158.555 435.14 157.407 433.705 153.962C431.983 150.23 432.27 148.507 433.131 147.072C433.131 147.072 433.131 146.785 432.557 145.924C430.835 143.34 431.983 140.469 432.557 138.173C433.418 135.589 433.705 134.154 432.557 132.718C429.4 128.986 429.4 118.652 429.687 114.633C428.826 114.345 427.965 114.345 427.104 114.058C421.364 118.364 415.624 123.532 413.902 125.541Z" fill="#EBEEF1"/>
<path d="M443.463 320.466C442.889 321.902 440.88 322.763 439.732 323.05C438.871 323.337 438.01 323.624 437.149 324.198C434.853 325.634 433.992 328.504 433.418 335.394C433.418 336.543 433.418 337.691 433.131 338.552C432.844 343.432 432.844 347.164 427.391 350.035C424.808 351.471 424.808 351.758 424.521 352.332C424.521 353.193 424.521 354.341 423.373 355.777C423.373 355.777 422.799 358.073 427.391 362.092C431.409 365.824 433.992 365.25 434.853 364.963C436.575 361.518 438.297 358.934 440.019 356.638C442.028 353.767 444.037 350.896 445.759 346.59C449.203 338.265 449.203 329.94 449.203 329.653V329.94L449.49 329.653C449.49 329.653 450.064 328.792 450.638 327.643C450.638 326.495 449.777 323.624 443.463 320.466Z" fill="#00264B"/>
<path d="M302.549 342.858C302.549 342.858 302.262 343.145 301.975 343.432C301.975 344.868 301.688 346.016 301.401 346.877C301.975 348.887 303.41 356.064 297.67 358.36C293.365 360.083 293.078 360.37 291.069 363.527L290.495 364.389C289.347 366.111 288.773 367.259 288.486 368.695C287.912 369.843 287.625 371.279 286.19 373.575C285.33 375.011 285.043 375.872 284.756 377.02C284.469 378.455 283.895 379.604 282.747 381.039C287.338 381.039 289.347 382.187 292.217 384.197C293.078 384.771 294.226 385.632 295.661 386.494C299.392 388.79 300.827 388.503 304.271 387.642C305.993 387.355 308.289 386.781 311.159 386.494C318.334 385.919 319.195 388.79 320.056 393.67C320.343 395.68 320.917 397.977 321.778 400.56C322.926 403.431 323.213 405.441 323.787 407.163C324.648 410.608 324.648 410.895 329.239 411.469C334.118 412.043 335.553 412.618 335.84 415.488C335.84 416.349 336.127 417.498 337.562 419.507C338.423 420.656 339.284 421.517 340.145 421.517C341.293 421.517 342.154 420.656 342.728 420.081C342.728 419.794 343.015 419.794 343.302 419.507C347.32 414.627 368.557 408.598 374.871 408.598C376.88 408.598 377.167 407.737 377.741 404.579C378.315 401.996 378.889 398.838 381.759 396.541C383.194 395.106 384.629 394.532 386.064 393.67C387.786 392.235 389.508 390.8 389.508 389.364C389.508 388.79 389.508 388.216 388.934 387.355C384.055 381.9 380.898 382.762 378.602 383.91C377.741 384.484 377.167 384.771 376.593 385.345C374.584 387.068 372.288 388.79 364.827 389.077C359.661 389.364 357.078 387.068 355.643 385.058C353.347 381.613 353.634 377.02 355.069 374.436C355.643 373.288 356.504 372.14 357.078 370.991C357.939 369.843 358.8 368.695 358.513 368.121C358.513 367.834 358.226 367.547 357.365 367.259C356.217 366.685 354.782 366.685 353.634 366.685C352.199 366.685 350.477 366.972 349.329 365.824C348.181 364.963 347.894 363.24 347.894 360.657C347.894 358.073 348.181 356.064 348.468 354.054C348.755 352.332 349.042 350.322 348.755 350.035C348.468 349.748 347.894 349.461 347.033 349.461C345.024 349.174 344.163 348.887 343.302 348.6C342.728 348.312 342.441 348.312 336.127 349.461C332.396 350.035 329.526 350.896 327.23 351.47C323.213 352.619 320.343 353.193 318.621 350.609C318.334 350.322 318.047 349.748 317.76 349.174C316.038 346.303 314.89 344.868 311.733 345.442C308.863 346.016 306.854 344.58 305.419 343.145C304.271 342.284 303.697 341.71 302.836 341.71C302.549 341.71 301.975 341.997 301.401 342.571L302.549 342.858Z" fill="#00264B"/>
<path d="M504.018 196.736C502.009 197.311 500.574 197.885 498.565 198.746C497.13 199.32 495.695 199.894 493.686 200.755C493.112 201.043 492.538 201.33 491.964 201.33C488.233 202.765 486.224 203.339 481.633 200.468C481.059 199.894 480.198 199.607 479.624 199.033C477.902 197.885 475.606 196.449 475.032 196.736C474.745 196.736 474.458 197.311 474.171 198.172C474.171 198.459 474.171 198.746 473.884 199.033C476.467 200.468 479.624 202.478 481.346 204.2C482.207 205.062 483.929 205.923 485.65 206.784C488.807 208.506 492.538 210.229 494.834 214.248C500.287 207.645 505.74 201.33 509.184 196.162C507.462 196.449 505.453 196.449 504.018 196.736Z" fill="#EBEEF1"/>
<path d="M484.216 209.655C482.494 208.794 480.485 207.932 479.337 206.784C478.189 205.636 476.18 204.487 474.458 203.339C474.458 203.626 474.745 203.913 474.745 204.2C475.319 205.636 476.18 207.645 476.754 211.09C477.902 217.98 475.606 220.564 474.171 221.999C473.884 222.286 473.597 222.573 473.597 222.573C473.597 223.147 474.745 226.592 477.328 228.889C478.763 230.324 480.485 230.898 481.92 230.611C485.364 226.305 489.095 221.999 492.826 217.406C491.104 213.1 487.66 211.377 484.216 209.655Z" fill="#EBEEF1"/>
<path d="M207.842 315.299C210.137 315.873 215.016 316.447 218.46 315.012C220.182 314.438 220.756 313.289 221.617 312.428C223.052 310.131 224.774 308.409 229.94 309.844C231.662 310.418 233.097 310.706 234.532 310.993C239.124 312.428 241.994 313.002 244.29 312.715C246.299 312.141 247.447 312.428 248.595 312.715C249.742 313.002 250.89 313.289 253.473 312.715C254.908 312.428 256.343 311.567 257.491 310.993C259.5 309.844 261.222 308.983 262.944 309.844C264.379 310.706 264.953 312.428 265.24 313.863C266.101 318.457 267.536 319.318 271.267 321.04C271.841 317.308 273.563 309.27 277.007 303.242C278.729 300.084 278.442 299.51 278.155 299.223C278.155 298.935 277.868 298.361 277.868 297.5C278.155 296.639 278.729 296.352 281.599 294.916C282.747 294.342 283.895 293.768 285.043 293.481C289.061 291.759 291.356 290.897 293.652 286.017C294.8 283.433 295.087 280.85 295.374 278.553C295.661 274.821 296.235 271.089 299.392 267.931C303.984 263.338 304.558 255.874 304.558 255.874V255.587L309.437 247.549C306.567 243.817 297.383 229.176 309.437 208.219C298.531 207.932 257.491 206.21 250.603 204.775C248.308 204.2 244.577 204.487 240.559 204.487C231.949 204.775 222.478 205.062 217.886 199.607C212.433 193.291 212.146 192.717 210.137 187.837C209.85 186.402 209.563 185.253 208.99 183.531C206.981 178.938 207.268 177.215 207.268 176.067C207.268 175.493 207.268 175.206 206.694 174.344C204.685 177.215 202.102 182.383 201.528 184.679C200.954 188.698 198.658 195.588 198.658 195.875L198.084 197.311H196.936C196.649 197.311 173.689 197.311 164.506 197.885C163.645 197.885 162.784 197.885 161.636 197.598C160.488 198.459 157.618 201.043 158.766 205.636C159.34 207.645 159.627 208.219 159.627 208.219C159.914 208.219 160.775 207.932 161.349 208.507C162.21 209.081 162.497 210.229 162.497 211.664C162.784 214.248 162.497 215.97 162.21 217.406C161.923 218.841 161.923 219.99 162.21 221.999C162.784 223.147 168.81 224.296 171.68 224.87C177.707 226.018 182.012 226.879 182.012 229.75C182.012 232.621 180.29 233.482 179.142 233.769C178.281 234.056 177.707 234.343 177.133 235.492C176.846 236.066 177.133 236.64 178.855 238.362C180.29 239.798 182.299 241.807 182.012 244.965C181.438 249.271 174.55 264.486 172.828 268.218C172.828 268.218 172.828 268.218 172.828 268.505L173.402 268.792L173.115 269.08C176.272 274.534 175.985 279.414 175.698 284.007C175.411 288.601 175.124 292.333 178.855 295.778C186.604 302.667 196.649 295.203 196.936 294.916L198.371 293.768L199.232 295.491C201.528 300.371 205.546 309.27 205.546 310.993C205.546 311.28 205.833 312.428 206.12 313.289C206.12 313.576 206.407 314.15 206.407 314.725L207.842 315.299Z" fill="#00264B"/>
<path d="M0.632634 173.483C0.345641 174.632 0.345641 175.78 0.0586484 176.928C-0.515338 185.828 3.21557 195.301 7.23347 199.033C8.09445 199.894 9.24242 200.756 10.6774 200.469C15.5563 199.894 17.2782 202.478 18.4262 204.775C19.0002 205.923 19.5742 207.071 20.7221 207.645C21.5831 208.794 25.888 206.497 28.7579 204.775C32.4889 202.765 36.5068 200.469 39.6637 200.469C41.6726 200.469 42.8206 201.33 43.1076 202.191C44.8295 205.062 42.2466 210.229 39.0897 215.971C38.5157 217.119 37.9417 218.267 37.3677 219.128C36.2198 221.425 37.0807 221.999 37.3677 222.286C38.8027 223.722 43.6816 223.722 46.8385 222.286C50.5694 220.277 54.0133 222.573 57.1702 224.583C59.1792 225.731 61.1881 227.167 63.4841 227.454C67.215 228.028 70.3719 224.87 73.5288 221.712C74.6768 220.564 75.8248 219.128 77.2598 218.267C80.7037 215.396 87.3045 209.655 89.3135 207.645C79.2687 202.765 52.5784 190.134 45.9775 185.828C39.0897 181.522 7.80746 174.919 0.632634 173.483Z" fill="#EBEEF1"/>
<path d="M310.584 476.636C311.158 475.2 312.019 473.765 312.593 472.043C314.028 469.746 314.889 467.737 314.028 467.162C313.167 466.301 312.019 466.301 310.584 465.727C308.576 465.153 305.993 464.579 302.262 462.282C300.827 461.421 299.105 459.985 297.383 458.837C291.93 454.818 285.042 449.364 278.154 449.364C275.571 449.364 273.275 449.651 270.979 449.651C265.814 449.938 261.222 450.225 258.352 448.215C255.482 452.809 247.159 458.837 234.531 467.736C223.913 475.2 207.554 486.683 208.989 490.415C210.711 494.435 214.729 495.009 219.034 495.296C222.478 495.583 226.209 495.87 227.357 499.315C228.218 501.611 232.522 503.047 238.836 505.056C244.289 506.779 250.89 509.363 258.639 513.094C270.118 518.836 266.962 526.3 264.953 531.18C263.231 535.199 263.231 535.773 264.953 536.635C268.11 538.07 270.979 534.051 275.284 527.161C278.441 522.281 281.885 516.826 286.19 513.956C294.226 508.788 295.948 506.492 302.262 497.018C303.41 495.583 304.558 493.573 305.993 491.851C308.576 487.832 311.732 484.387 314.889 480.942C313.454 480.942 312.306 480.368 311.445 479.507C310.871 479.507 310.01 478.358 310.584 476.636Z" fill="#EBEEF1"/>
<path d="M271.554 391.661L271.267 392.522C268.971 396.828 267.823 397.977 266.675 399.125C265.814 399.986 264.953 400.847 263.805 402.57C260.935 406.589 255.482 411.182 250.89 411.469C250.603 411.469 250.316 411.469 250.029 411.469C249.742 411.469 249.168 411.469 248.881 411.469C249.168 416.062 246.011 421.23 243.716 424.962C242.855 426.397 241.994 427.833 241.707 428.694C243.142 429.268 248.307 428.407 251.464 427.833C253.473 427.546 255.769 427.258 257.778 426.971C258.065 426.971 258.639 426.971 258.926 426.971C260.648 426.971 262.083 427.546 262.944 428.407C263.805 429.268 263.805 430.416 263.805 431.852C268.397 430.416 271.841 431.277 274.998 431.852C276.146 432.139 277.294 432.426 278.729 432.713C281.886 433 284.469 434.722 287.051 436.158C289.06 437.306 290.782 438.454 292.791 438.741C294.513 439.029 295.374 438.167 297.957 435.871C299.679 434.148 302.262 431.852 305.993 429.555C311.733 425.823 314.603 428.407 316.325 429.842C317.76 430.99 318.047 431.277 319.482 429.842C324.361 424.962 332.683 427.833 336.127 428.981C337.275 426.971 338.423 425.536 339.571 423.814C338.136 423.526 336.701 422.378 335.553 420.943C333.831 418.359 333.544 416.637 333.257 415.488C333.257 415.201 333.257 414.914 333.257 414.914C333.257 414.914 332.396 414.627 329.526 414.34C323.213 413.766 322.352 412.043 321.204 407.737C320.917 406.302 320.343 404.292 319.482 401.709C318.334 398.838 318.047 396.254 317.473 394.245C316.612 389.939 316.612 389.077 311.733 389.652C308.863 389.939 306.854 390.513 305.132 390.8C301.688 391.661 299.105 392.235 294.226 389.364C292.791 388.503 291.643 387.642 290.495 387.068C287.338 384.771 285.903 383.91 279.016 384.484C278.155 385.058 277.581 385.345 277.007 385.632C273.85 387.355 273.85 387.355 271.554 391.661Z" fill="#EBEEF1"/>
<path d="M474.171 152.814C473.31 155.11 472.736 157.12 469.292 159.416C468.144 160.278 466.996 160.565 466.135 160.852H465.848C469.292 163.436 472.736 161.139 477.328 157.407C479.911 155.397 481.92 153.388 484.216 153.388C485.651 153.388 486.799 153.962 487.373 154.823C488.234 156.833 486.512 159.129 484.503 162C483.642 163.148 482.781 164.297 482.494 165.158C482.207 165.445 482.207 165.732 482.207 165.732C482.494 166.019 483.929 166.593 484.79 166.88C486.225 167.455 487.947 168.029 489.669 168.89C489.956 169.177 490.243 169.177 490.243 169.177C490.53 168.029 489.669 164.297 489.382 162.861C489.095 161.139 489.669 159.991 490.243 159.416C492.252 157.407 496.844 157.981 501.435 158.842C505.166 159.416 511.767 160.278 514.924 160.565C514.063 153.675 512.341 147.933 510.332 146.211C504.592 141.331 499.14 141.331 491.391 141.331C489.669 141.331 487.086 140.182 484.503 138.46C481.633 141.331 476.18 146.785 475.032 149.656C474.745 151.091 474.458 151.953 474.171 152.814Z" fill="#00264B"/>
<path d="M492.826 162C492.826 162 492.826 162.287 492.826 162.574C493.973 167.168 494.26 170.613 492.539 172.048C491.965 172.335 491.678 172.622 491.104 172.622C490.243 172.622 489.382 172.335 488.521 171.761C487.086 170.9 485.651 170.325 484.216 170.038C482.207 169.177 480.198 168.603 479.624 167.168C479.337 166.306 479.337 165.158 479.911 164.297C480.485 163.149 481.346 162 482.207 160.852C483.068 159.704 484.216 157.981 484.503 157.12C484.503 157.12 484.503 157.12 484.216 157.12C483.068 157.12 481.059 158.842 479.05 160.278C475.319 163.436 469.866 168.029 464.126 164.297C464.126 164.871 464.413 165.732 464.413 166.593C465.561 174.057 465.561 175.206 464.413 178.364C465.561 179.799 466.709 180.947 467.857 180.947C469.579 181.234 471.301 179.799 472.736 178.938C473.023 178.651 473.31 178.651 473.597 178.364C475.606 176.928 480.198 175.493 483.068 176.354C484.503 176.928 485.364 177.789 485.938 179.225C486.225 180.086 486.225 180.947 486.512 181.809C486.799 184.392 487.086 185.541 490.53 186.402C491.391 186.689 491.678 186.689 491.965 186.689V186.402C492.252 184.966 492.539 182.383 496.269 180.66C500.287 178.651 501.722 178.077 503.444 177.502C504.305 177.215 504.879 176.928 506.027 176.641C508.897 175.493 513.202 175.78 515.785 176.354C516.072 172.622 516.072 168.89 515.785 165.158C512.915 164.871 505.74 164.01 501.722 163.149C498.852 162 493.686 161.139 492.826 162Z" fill="#EBEEF1"/>
<path d="M434.566 130.135C436.862 132.719 436.001 135.876 435.14 138.46C434.566 140.47 433.992 142.479 434.853 143.915C436.001 145.924 436.288 147.359 435.14 148.508C434.853 148.795 434.566 149.369 436.001 152.24C437.149 154.823 438.584 155.398 440.019 156.259C442.602 157.694 444.324 159.13 443.463 164.871C442.889 169.464 441.454 171.474 440.593 172.622C439.732 173.77 439.445 174.345 440.306 176.354C440.306 176.354 440.306 176.354 440.306 176.641C441.454 176.928 445.185 175.78 447.481 174.919C450.638 173.77 453.508 172.909 455.517 173.196C457.813 173.483 459.535 175.206 460.97 176.354C461.257 176.641 461.544 176.928 462.118 177.215C463.266 174.057 463.553 173.483 462.405 166.594C461.544 160.565 462.405 159.13 465.848 157.981C466.709 157.694 467.57 157.407 468.431 156.833C470.727 155.11 471.301 153.962 471.875 151.666C472.162 150.804 472.449 149.656 473.023 148.508C474.458 145.35 479.911 139.608 482.781 136.738C479.624 134.728 476.18 131.857 472.449 128.987C463.84 122.097 453.221 113.772 449.203 114.92C445.472 116.068 439.445 115.494 432.844 114.346C432.27 120.374 432.557 127.838 434.566 130.135Z" fill="#00264B"/>
<path d="M361.096 116.068C359.661 120.948 358.8 122.097 357.365 123.532C356.217 124.68 355.069 125.829 353.06 131.57C350.764 137.312 347.033 139.895 343.302 141.618C346.459 143.34 348.468 146.498 349.616 150.517C351.912 159.13 349.042 171.187 347.033 172.622C346.746 172.909 347.033 174.345 348.181 176.928C348.755 178.077 349.329 179.512 349.903 181.234C351.051 184.392 352.199 184.392 354.208 184.392C355.356 184.392 357.078 184.679 358.226 185.828C360.522 188.124 358.226 190.708 356.504 192.43C355.356 193.579 353.921 195.014 353.347 196.737C353.634 196.737 353.921 196.737 354.208 196.737C356.217 196.737 359.661 197.024 360.522 201.33C361.096 203.626 363.105 207.071 365.688 210.229C365.975 209.081 366.836 207.932 367.41 206.497C368.271 204.775 369.132 203.052 369.419 201.904C369.706 200.756 369.419 199.32 369.419 197.598C369.132 195.588 369.132 193.005 369.419 189.847C369.706 186.115 370.28 185.541 372.289 184.392C373.15 183.818 374.584 183.244 376.88 180.947C380.324 177.502 380.898 176.928 382.907 176.641C383.768 176.641 384.629 176.354 387.212 175.206C390.369 173.77 390.943 172.909 391.804 171.187C392.378 169.751 393.239 168.029 396.396 166.019C400.414 163.149 403.858 163.723 406.441 163.723C407.015 163.723 408.163 164.01 408.45 163.723C408.737 163.436 408.737 162.862 408.737 162.574C408.45 161.713 407.589 160.852 406.728 160.565C405.58 160.278 405.006 159.704 404.719 159.13C403.858 157.407 404.432 155.111 405.006 152.527C405.293 151.953 405.293 151.091 405.58 150.517C405.58 149.943 405.867 149.369 405.867 149.082C406.441 146.785 406.728 145.924 405.867 140.757C405.006 136.451 405.58 135.302 407.876 133.58C408.737 133.006 410.172 131.857 411.894 129.848C412.755 128.987 413.042 128.125 413.329 127.838C412.755 127.551 411.894 127.264 411.607 126.403C411.32 126.116 411.32 125.255 411.607 124.393C412.468 122.384 419.929 116.068 424.234 112.336C418.781 110.901 413.616 108.891 410.172 107.169C405.867 104.872 403.858 105.733 401.562 106.595C399.84 107.456 397.831 108.03 394.674 107.169C392.091 106.308 389.795 103.724 386.925 100.566C382.62 95.3987 376.593 88.5089 365.975 85.3511C364.827 85.064 363.392 84.4898 362.531 84.2028C362.244 91.0926 363.679 107.743 361.096 116.068Z" fill="#EBEEF1"/>
<path d="M472.736 228.315C471.301 226.306 469.579 222.574 471.014 220.564C471.301 220.277 471.588 219.99 471.875 219.703C473.31 218.267 474.745 216.832 473.597 211.378C473.023 208.507 472.449 206.784 471.875 205.349C471.301 203.914 470.727 202.765 470.727 201.33C470.44 201.33 470.153 201.043 470.153 201.043C468.144 199.895 467.283 199.32 466.996 199.033C466.709 198.746 465.561 198.172 464.413 197.598C462.404 196.45 459.534 195.014 455.804 192.718C454.656 191.856 453.795 191.569 453.508 191.569C453.508 191.856 453.221 191.856 453.221 192.143C452.647 193.292 451.499 195.301 448.629 196.737C445.759 198.172 445.472 199.033 445.185 200.469C444.898 201.617 444.611 203.052 443.176 205.062C442.028 206.21 440.593 207.933 438.584 207.646C436.575 207.071 435.714 204.775 434.566 201.043C433.705 198.172 432.557 196.45 431.696 195.588C429.4 197.598 427.104 199.32 424.521 200.756C422.799 201.904 421.651 203.339 420.79 204.775C419.068 207.071 417.346 209.655 412.468 208.507C409.598 207.933 406.728 206.497 404.719 205.636C403.284 205.062 400.988 203.914 400.414 204.201C400.127 204.201 399.84 204.488 399.553 204.488C399.553 204.488 399.553 204.775 399.553 205.062C399.553 205.636 399.553 206.497 399.553 207.646C399.553 213.1 398.692 218.267 392.665 221.712C391.23 222.574 391.23 223.148 390.943 223.722C390.082 225.731 389.221 226.593 386.351 226.593C385.203 226.593 384.055 226.593 382.333 226.306C374.872 225.444 373.437 222.286 372.576 218.842C372.289 217.98 372.002 217.119 371.715 216.545C370.567 215.11 369.132 213.674 367.984 213.1C367.984 213.387 367.697 213.674 367.697 213.961C367.697 214.248 367.984 214.822 368.271 215.397C368.558 215.684 368.558 215.971 368.845 215.971L369.419 215.684C369.993 216.545 370.567 217.119 370.854 217.406L370.28 218.267H370.567C371.428 219.99 371.428 221.425 370.854 222.574C369.993 224.296 367.697 224.583 365.688 224.87C364.253 225.157 362.818 225.444 361.957 226.018C361.383 226.593 361.383 226.88 363.679 229.463C364.827 230.899 366.262 232.334 367.41 234.344C369.419 238.076 367.41 239.798 366.262 240.659C365.401 241.233 365.401 241.521 365.401 242.095C365.688 243.243 366.262 244.104 367.123 245.253C368.558 247.262 370.28 250.133 368.558 253.578C366.262 258.171 364.54 263.912 365.114 265.635C365.401 266.209 366.262 267.07 367.123 267.644C368.558 268.506 370.28 269.654 370.28 271.664C370.567 273.099 369.706 274.821 367.984 276.544C367.41 277.118 366.549 277.692 365.975 278.266C372.576 281.998 378.315 277.118 383.768 272.525C385.203 271.089 386.638 269.941 388.073 269.08C389.795 267.644 392.378 266.496 394.1 267.644C396.396 269.08 395.822 272.525 394.961 276.831L394.674 278.553C394.674 279.415 394.674 279.702 394.674 279.702C395.248 279.989 397.544 278.84 398.979 278.553C400.701 277.979 402.423 277.405 403.858 277.118C406.728 276.544 409.598 277.405 412.181 277.979C414.19 278.553 416.485 279.127 417.92 278.84C419.642 278.553 421.364 278.84 423.086 280.276C425.669 282.285 427.678 286.304 427.678 289.462C427.678 289.749 428.826 289.462 429.687 289.462C431.983 289.175 435.714 288.888 439.445 290.898C446.046 294.343 448.342 297.213 447.768 301.519C447.481 304.39 444.324 306.4 441.741 308.122C440.593 308.983 439.158 309.845 438.871 310.419C438.584 310.993 440.019 313.577 440.88 315.012C441.741 316.447 442.315 317.596 442.889 319.031C448.342 321.328 450.925 323.911 452.36 325.921C454.082 322.189 455.804 317.309 455.23 313.29C454.369 306.113 455.804 304.103 458.386 300.371C458.673 299.797 459.247 299.223 459.821 298.362C460.969 296.639 460.682 291.185 460.395 285.73C460.108 277.692 459.534 268.506 463.265 264.2C466.422 260.468 466.709 259.032 467.283 256.736C467.857 254.726 468.431 251.855 470.727 247.262C472.162 244.391 475.319 240.085 478.763 235.492C477.041 232.621 474.745 230.899 472.736 228.315Z" fill="#00264B"/>
<path d="M296.235 337.404C295.374 335.968 294.226 333.959 292.217 331.375C289.922 328.504 284.469 327.356 279.303 326.208C276.433 325.633 273.85 325.059 271.841 324.198L270.693 323.624C266.101 321.614 263.518 320.466 262.083 313.863C261.796 312.141 261.509 312.141 261.509 312.141C261.222 312.141 259.787 312.715 258.639 313.289C257.204 313.863 255.769 314.725 254.047 315.299C250.604 316.16 248.882 315.873 247.447 315.299C246.586 315.012 245.725 315.012 244.577 315.299C241.42 316.16 238.263 315.012 233.097 313.576C231.662 313.289 230.227 312.715 228.792 312.428C225.348 311.567 224.774 312.141 223.626 313.863C222.765 315.012 221.617 316.734 219.321 317.595C215.59 319.031 210.711 318.744 207.842 318.169C208.703 322.763 209.564 328.504 207.842 333.097C206.407 337.404 206.694 337.978 207.268 340.274C207.842 341.997 208.416 344.58 208.703 349.748C208.99 355.489 207.555 359.795 206.12 363.527C204.398 368.408 203.25 372.14 205.833 377.02C207.842 381.039 214.442 381.9 220.756 382.761C228.218 383.91 235.967 385.058 235.393 391.948C234.819 397.977 237.689 399.986 240.846 402.283C242.568 403.431 244.577 405.153 246.299 407.163C246.586 407.45 246.586 407.45 246.873 407.45L247.16 407.163L246.873 407.737C247.447 408.024 248.308 408.311 249.169 408.311C252.612 408.024 257.204 404.005 259.787 400.56C261.222 398.551 262.083 397.689 262.944 396.828C264.092 395.393 264.953 394.532 267.249 390.8L267.536 389.938C270.119 385.058 270.406 384.771 274.137 382.474C274.711 382.187 275.572 381.613 276.433 381.039C279.877 378.742 280.164 377.594 280.738 375.585C281.025 374.436 281.312 373.001 282.46 371.566C283.608 369.556 284.182 368.408 284.469 367.259C285.043 365.824 285.33 364.676 286.765 362.379L287.339 361.518C289.635 358.073 290.209 357.212 295.374 355.202C299.105 353.48 297.383 347.164 297.383 347.164V346.59V346.016C297.67 345.155 297.957 344.006 297.957 343.145L296.809 342.284C297.096 341.71 297.67 341.423 297.957 340.848C297.957 340.848 297.957 340.848 297.957 340.561C297.957 340.274 297.096 339.126 296.235 337.404Z" fill="#EBEEF1"/>
<path d="M177.707 240.946C176.272 239.511 174.263 237.501 175.411 234.631C176.559 232.621 177.994 231.76 178.855 231.473C179.716 231.186 179.716 230.899 179.716 230.325C179.142 229.75 174.55 228.889 171.68 228.315C165.653 227.167 160.488 226.018 159.914 223.148C159.34 220.564 159.627 219.129 159.627 217.406C159.914 215.971 159.914 214.535 159.914 212.526C159.914 212.239 159.914 211.952 159.914 211.665C157.618 211.665 156.757 209.655 156.183 207.071C155.035 202.765 156.757 199.32 158.479 197.311C155.035 195.875 151.304 193.866 147.573 191.569C142.694 188.699 137.815 185.541 133.51 184.967C129.205 184.392 126.909 187.837 124.039 193.005C122.031 196.737 119.735 200.469 116.004 201.33C113.421 201.617 111.699 202.478 109.977 202.765C107.107 203.626 105.098 204.488 101.367 203.626C99.0711 203.052 97.0622 205.349 95.9142 207.358H101.367C102.802 207.358 104.237 207.933 105.098 208.794C107.394 211.09 107.107 215.684 106.533 221.138C106.246 223.435 106.246 225.731 106.246 228.028C106.246 235.205 117.439 240.085 127.196 244.391C128.918 245.252 130.64 245.827 132.362 246.688C136.954 248.697 140.111 249.846 142.407 250.42C146.138 251.568 148.434 252.142 151.878 255.587C153.6 257.31 155.896 257.884 158.192 258.458C161.923 259.319 166.514 260.468 171.393 266.209C174.263 259.893 179.142 248.697 179.429 245.54C180.003 243.53 179.142 242.382 177.707 240.946Z" fill="#EBEEF1"/>
<path d="M138.676 44.2993C142.981 44.8734 143.268 48.0313 143.555 50.6149C143.842 52.3374 143.842 54.0598 144.99 55.4952C147.286 58.9401 147.286 60.0884 147.286 62.9592C147.286 64.1075 147.286 65.5429 147.573 67.8395C147.86 71.8586 149.008 74.1552 149.869 76.4518C150.73 78.4613 151.304 79.8967 151.017 81.6191C151.017 81.9062 150.73 82.4804 150.73 82.7674C150.156 84.2028 149.869 86.2124 150.73 87.6477C151.878 89.3702 154.748 90.5185 159.053 91.3797C160.775 91.6668 161.923 91.6668 162.21 91.0927C163.071 89.9443 161.349 85.6382 160.488 83.3416C159.053 79.8967 158.192 77.6001 159.627 76.1647C160.201 75.3035 161.349 75.3035 162.784 75.5905C168.811 77.6001 175.986 75.5906 178.855 73.581C179.716 73.0069 180.003 72.1456 180.577 71.2844C182.012 69.2749 183.734 66.6912 188.613 67.5524C191.77 68.1266 193.779 66.6912 194.927 65.5429C195.501 62.6721 196.075 60.0884 196.649 58.366C195.788 58.6531 194.64 58.9401 193.779 58.9401C185.169 58.9401 185.169 51.4762 185.169 39.9931C185.169 27.6489 182.012 19.3237 176.846 17.8883C175.412 17.6012 174.551 16.74 173.977 15.8787C172.829 13.5821 173.977 10.9985 175.412 8.12769C176.846 4.39571 177.994 1.81202 176.273 0.376641C174.551 -1.05874 171.968 1.81202 168.237 5.54401C164.793 9.276 161.062 13.008 157.331 13.008C155.322 13.008 153.887 13.8692 152.165 15.3046C148.721 17.6012 144.129 20.759 131.789 19.0366C124.327 17.8883 120.596 16.4529 118.587 15.0175C119.448 15.8787 120.596 17.3141 121.457 18.1754C124.614 21.9073 128.058 25.6393 127.484 29.0842C127.197 31.0938 127.484 32.5291 127.771 34.2516C128.058 36.5482 128.632 39.419 127.771 44.2993C130.354 44.0122 134.946 44.0122 138.676 44.2993Z" fill="#EBEEF1"/>
<path d="M93.0446 206.21C94.1926 203.626 97.3495 199.033 102.228 200.181C105.098 200.756 106.533 200.181 109.116 199.607C110.838 199.033 112.847 198.459 115.43 197.885C117.726 197.598 119.448 194.44 121.457 191.282C124.04 186.689 127.484 180.947 134.085 181.809C138.963 182.383 144.416 185.541 149.295 188.698C154.748 191.856 160.201 195.301 164.506 195.014C172.542 194.44 191.196 194.44 196.075 194.44C196.649 192.43 198.084 187.55 198.658 184.679C199.232 180.947 202.963 174.632 204.685 172.335C200.954 167.742 200.667 164.01 203.824 160.565C205.833 158.268 222.478 120.661 222.478 114.633C222.478 112.049 222.765 110.04 223.052 108.317C223.626 105.733 223.626 104.585 222.765 103.437C221.904 102.289 219.895 101.714 217.887 100.853C215.878 100.279 213.295 99.4178 211.573 97.6954C210.712 97.1212 209.851 96.5471 208.703 95.6858C204.685 93.1022 199.232 89.3702 195.788 81.332C194.353 77.8871 194.066 73.8681 194.353 69.849C192.631 70.7102 190.622 70.9973 188.039 70.7102C184.882 70.1361 184.308 71.2844 182.873 73.2939C182.299 74.1552 181.438 75.3035 180.577 76.1647C177.421 78.7484 169.672 81.3321 162.21 78.7484C162.497 79.6096 163.071 81.045 163.358 82.1933C164.793 86.2123 166.802 90.5185 164.506 93.1022C163.645 94.2505 162.21 94.8246 160.488 94.8246C159.914 94.8246 159.053 94.8246 158.192 94.5375C152.739 93.6763 149.295 91.9539 147.86 89.3702C146.138 86.7865 146.999 83.9157 147.573 82.1933C147.573 81.9062 147.86 81.6191 147.86 81.332C148.147 80.4708 147.573 79.3225 146.999 77.8871C146.138 75.8776 144.703 72.7198 144.416 68.4136C144.129 66.117 144.129 64.6817 144.129 63.5333C144.129 60.9497 144.129 60.3755 142.12 57.5048C140.685 55.2081 140.398 53.1986 140.398 51.1891C140.111 48.3183 139.824 47.7442 138.102 47.4571C134.372 46.8829 129.206 47.17 126.91 47.4571C124.04 57.5048 109.116 62.6721 101.367 62.6721C93.6186 62.6721 89.0267 56.9306 84.4348 50.6149C81.2779 46.3088 81.2779 46.3088 73.2421 50.0408C71.8071 50.6149 70.3721 51.1891 68.6502 52.0503C60.9014 55.4952 56.5965 53.4857 53.7265 52.0503C51.7176 51.1891 51.4306 51.1891 50.8566 51.7632C49.9956 52.6245 50.8566 53.7728 52.8655 56.3565C54.3005 58.366 55.7355 60.0884 55.4485 61.8109C55.4485 62.6721 54.8745 63.2463 54.0135 63.8204C52.8655 64.6816 52.0046 65.2558 51.1436 65.5429C49.4216 66.4041 47.9867 67.2653 45.6907 70.9973C44.2558 73.2939 47.4127 78.7484 49.9956 83.3416C53.4395 89.3702 56.5965 95.1117 54.3005 98.8437C52.8655 101.14 52.0046 108.03 50.8566 114.633C48.8476 127.838 47.4127 135.876 43.6818 137.025C41.9598 137.599 40.5248 137.312 39.3769 136.451C37.3679 135.015 36.5069 132.432 35.933 130.709C33.063 131.857 26.7492 134.154 19.0004 135.302C14.1215 136.164 13.8345 137.025 13.2605 138.173C12.6865 139.608 12.1125 141.618 8.09464 143.915C1.4938 147.647 6.08569 160.278 6.08569 160.278L6.65967 161.426L5.5117 162C5.22471 162 2.35478 164.01 0.345825 170.038C8.95562 172.048 40.2379 178.651 47.4127 183.531C54.5875 188.124 85.8698 203.052 93.0446 206.21Z" fill="#EBEEF1"/>
<path d="M199.232 66.404C199.232 66.404 198.945 66.9781 198.084 67.5523L197.51 66.9781C196.936 71.2842 196.649 75.8775 198.371 79.8965C201.241 87.0734 206.407 90.5183 210.138 92.8149C211.286 93.6762 212.434 94.2503 213.295 94.8245C214.73 95.9728 216.739 96.834 218.748 97.4081C221.043 98.2694 223.626 99.1306 225.061 100.853C226.783 103.15 226.496 105.446 225.922 108.317C225.635 110.039 225.348 111.762 225.348 114.059C225.348 120.661 208.416 159.704 205.833 162.287C204.685 163.436 202.963 165.158 207.555 170.613C210.138 173.483 210.425 174.344 210.138 176.067C210.138 176.928 209.851 178.364 211.573 182.096C212.147 183.531 212.721 184.679 213.008 185.828C215.017 190.421 215.017 190.708 220.182 196.736C223.913 201.043 232.81 200.755 240.559 200.468C244.577 200.181 248.595 200.181 251.465 200.755C258.066 202.191 303.123 203.913 310.872 204.2C312.02 201.043 315.177 192.43 320.343 188.411C322.639 186.689 322.065 184.392 321.204 180.66C320.343 177.215 319.482 173.483 322.352 170.325C324.361 167.742 327.231 166.306 330.101 164.871C333.832 162.861 336.989 161.426 336.989 157.981C337.276 155.397 335.267 153.675 333.258 152.24C330.962 150.517 328.379 148.508 330.101 144.776C331.249 142.192 334.406 141.044 337.563 139.895C342.154 138.46 347.32 136.738 349.903 130.135C352.486 123.819 353.921 122.097 355.069 120.948C355.93 120.087 356.791 119.226 357.939 114.633C360.522 106.308 358.513 87.6476 357.939 83.3414C355.069 82.4802 352.773 81.3319 350.764 80.7578C344.45 78.4611 341.007 77.0258 332.971 77.0258C318.047 77.0258 314.89 68.9876 314.89 62.3849C314.89 57.2175 309.724 52.3372 304.558 47.4569C303.41 46.3086 302.549 45.4474 301.401 44.2991C297.958 40.8542 298.245 35.1127 298.245 29.3712C298.245 23.6296 298.245 17.8881 294.801 15.8786C293.94 15.3044 293.366 15.3044 292.505 15.5915C289.922 16.4527 287.052 21.333 284.469 26.2133C282.173 30.5195 279.59 35.1127 276.433 38.2705C269.832 44.8733 256.918 41.7154 249.169 39.7059C247.447 39.1317 245.438 38.8447 244.864 38.8447C241.994 38.8447 238.55 42.2896 232.81 48.0311C228.505 52.3372 226.496 51.1889 224.2 49.4665C223.052 48.6052 221.904 47.744 219.322 47.744C216.165 47.744 211.573 50.6148 206.981 53.1985C204.398 54.6338 202.102 56.0692 199.806 57.2175C199.232 58.3658 198.084 61.8107 197.51 65.8298L199.232 66.404Z" fill="#EBEEF1"/>
<path d="M307.141 333.384C307.428 331.375 308.002 329.078 311.159 327.069C315.464 324.485 317.473 324.772 320.917 325.633C322.352 325.92 324.073 326.495 326.656 326.782C334.979 327.643 340.719 326.207 345.598 322.188C347.894 320.179 347.607 319.892 347.32 318.744C347.033 317.595 346.459 315.873 347.894 313.289C349.329 310.992 348.468 308.983 346.459 305.538C345.598 303.816 344.45 301.806 343.589 299.509C342.728 297.5 342.441 295.777 343.302 294.629C344.163 293.481 345.598 293.194 347.033 293.194C348.755 292.907 350.764 292.907 353.06 291.471C354.782 290.323 355.069 289.749 355.069 289.749C355.069 289.462 354.782 288.888 354.208 288.313C353.347 286.878 351.912 284.869 352.199 281.711C352.773 277.405 355.93 277.117 358.513 276.83C360.809 276.543 363.105 276.256 365.4 273.96C366.835 272.524 366.835 271.663 366.835 271.376C366.835 270.802 365.687 270.228 364.827 269.366C363.679 268.505 362.244 267.644 361.67 265.922C360.809 263.338 362.244 258.745 363.392 255.3C362.818 255.3 362.531 255.013 361.957 254.726C360.235 254.151 357.365 253.29 352.773 253.29C348.468 253.29 347.607 254.438 347.32 254.438C347.033 254.726 347.32 255.3 347.32 255.587L347.894 256.735L345.598 258.17L344.45 256.448C343.876 255.587 342.154 255.874 339.284 256.448C337.849 256.735 336.414 257.022 334.979 257.022C331.822 257.309 330.387 256.448 329.239 255.3C328.378 254.726 328.091 254.151 325.795 254.726C324.073 255.013 323.5 255.587 323.213 256.161C321.491 258.17 319.769 257.022 316.038 254.438C313.455 252.716 312.02 251.568 310.872 250.419L307.141 256.448C306.854 258.17 305.993 265.347 301.114 270.228C298.531 272.811 298.244 275.395 297.957 279.127C297.67 281.711 297.383 284.581 296.235 287.452C293.652 293.768 290.495 294.916 285.903 296.639C284.755 296.926 283.894 297.5 282.46 298.074C281.599 298.361 281.025 298.648 280.738 298.935C281.025 300.084 280.738 301.806 279.303 304.964C276.146 310.705 274.424 319.318 273.85 322.476C275.572 323.05 277.581 323.337 279.59 323.911C285.042 325.059 291.069 326.207 294.226 330.227C296.235 332.81 297.67 335.107 298.531 336.542C299.392 337.978 299.679 338.839 300.253 339.126C300.54 339.413 300.827 339.413 300.827 339.7C301.114 339.413 301.688 339.413 301.975 339.126C306.567 337.403 306.854 335.681 307.141 333.384Z" fill="#00264B"/>
<path d="M396.97 376.159C399.553 376.733 401.562 377.02 403.571 375.872C407.588 373.288 407.588 373.288 410.458 370.704C411.893 369.269 413.041 367.547 413.902 365.824C414.763 364.389 415.624 362.666 416.772 361.231C418.207 359.795 418.494 358.934 418.781 358.073C419.068 357.212 419.642 356.063 420.503 354.628C421.077 353.767 421.077 353.193 421.077 352.619C421.077 350.609 421.651 349.461 425.382 347.738C429.4 345.729 429.4 343.719 429.687 338.839C429.687 337.691 429.687 336.829 429.974 335.394C430.548 328.217 431.409 323.911 435.14 321.614C436.288 321.04 437.436 320.466 438.297 320.179C440.593 319.318 440.593 319.318 440.306 318.457C440.019 317.308 439.158 315.873 438.297 314.438C436.575 311.567 435.14 308.983 436.288 306.686C436.862 305.538 438.584 304.677 440.019 303.529C442.028 302.38 444.611 300.658 444.611 299.222C444.898 296.926 444.611 295.203 438.01 291.471C435.14 290.036 432.27 290.323 429.974 290.61C428.252 290.897 426.53 290.897 425.382 290.036C424.808 289.462 424.521 288.601 424.521 287.739C424.521 285.443 422.799 282.285 421.077 280.85C420.503 280.275 419.642 279.701 418.494 279.988C416.198 280.563 413.902 279.988 411.319 279.127C409.023 278.553 406.44 277.692 404.145 278.266C402.71 278.553 401.275 279.127 399.84 279.701C396.683 280.85 394.1 281.711 392.378 280.275C390.943 279.127 391.23 277.118 391.23 276.256L391.517 274.534C391.804 272.524 392.378 269.08 391.804 268.505C391.804 268.505 390.943 268.792 389.221 269.941C387.786 270.802 386.638 271.95 384.916 273.386C379.176 278.553 371.14 285.156 361.957 278.266C360.809 278.553 359.661 278.84 358.513 278.84C355.93 279.127 355.069 279.414 354.782 281.137C354.495 283.146 355.356 284.295 356.217 285.73C357.078 286.878 357.652 288.027 357.365 289.462C357.078 290.61 355.93 291.759 353.921 293.194C351.051 294.916 348.468 295.203 346.746 295.491C346.172 295.491 345.311 295.49 345.311 295.778C345.311 295.778 345.311 296.352 345.885 298.074C346.746 300.371 347.607 302.093 348.468 303.816C350.19 307.261 351.912 310.706 349.903 314.438C349.042 315.873 349.329 316.734 349.616 317.595C350.19 319.605 350.477 321.327 347.033 324.198C341.867 328.791 334.979 330.514 325.795 329.653C322.926 329.365 321.204 328.791 319.482 328.504C316.325 327.643 315.464 327.643 312.02 329.653C310.011 330.801 309.724 332.236 309.437 333.959C309.15 335.681 308.576 337.978 306.28 339.7C306.567 339.987 306.854 340.274 307.428 340.561C308.863 341.71 309.724 342.571 311.159 342.284C316.899 340.848 319.195 344.868 320.63 347.451C320.917 348.025 321.204 348.312 321.491 348.6C322.065 349.174 322.926 349.174 326.656 348.025C328.952 347.451 331.822 346.59 335.84 346.016C342.728 344.868 343.302 344.868 344.737 345.442C345.024 345.729 345.598 345.729 347.32 346.016C349.042 346.016 350.477 346.59 351.051 347.738C352.199 349.461 351.912 351.47 351.625 354.341C351.338 356.064 351.051 358.073 351.051 360.37C351.051 362.666 351.338 363.24 351.625 363.24C351.912 363.527 352.773 363.527 353.634 363.527C355.069 363.527 357.078 363.24 358.8 364.389C360.235 365.25 361.096 366.111 361.383 367.259C361.957 368.982 360.809 370.704 359.374 372.714C358.8 373.575 357.939 374.723 357.652 375.585C356.791 377.594 356.504 380.752 357.939 383.336C359.087 385.345 361.383 386.206 364.253 386.206C370.566 385.919 372.288 384.484 374.297 383.049C375.158 382.474 375.732 381.9 376.88 381.326C378.602 380.465 380.037 380.178 381.759 380.178C382.907 379.317 386.925 377.02 390.656 376.159C393.239 375.585 395.248 375.872 396.97 376.159Z" fill="#00264B"/>
<g filter="url(#filter0_d_424_257)">
<rect width="10.1688" height="10.4714" rx="0.853221" transform="matrix(0.866025 -0.5 0.866025 0.5 390 336.352)" fill="#073766"/>
</g>
<g clip-path="url(#clip0_424_257)">
<path d="M397.912 330.257V335.328L398.625 336.396C398.778 336.627 399.117 336.627 399.271 336.396L399.983 335.328V330.257C399.647 330.319 399.302 330.356 398.948 330.356C398.594 330.356 398.248 330.319 397.912 330.257ZM398.948 320C396.374 320 394.287 322.086 394.287 324.66C394.287 327.234 396.374 329.32 398.948 329.32C401.521 329.32 403.608 327.234 403.608 324.66C403.608 322.086 401.521 320 398.948 320ZM398.948 322.46C397.734 322.46 396.747 323.447 396.747 324.66C396.747 324.874 396.573 325.049 396.359 325.049C396.144 325.049 395.97 324.874 395.97 324.66C395.97 323.019 397.306 321.683 398.948 321.683C399.162 321.683 399.336 321.857 399.336 322.071C399.336 322.286 399.162 322.46 398.948 322.46Z" fill="#E27031"/>
</g>
<g filter="url(#filter1_d_424_257)">
<rect width="14.6188" height="15.0539" rx="1.2266" transform="matrix(0.866025 -0.5 0.866025 0.5 346 400.507)" fill="#073766"/>
</g>
<g clip-path="url(#clip1_424_257)">
<path d="M357.374 391.746V399.035L358.399 400.572C358.62 400.903 359.107 400.903 359.328 400.572L360.352 399.035V391.746C359.868 391.835 359.372 391.888 358.863 391.888C358.354 391.888 357.858 391.835 357.374 391.746ZM358.863 377C355.163 377 352.164 380 352.164 383.7C352.164 387.4 355.163 390.399 358.863 390.399C362.563 390.399 365.562 387.4 365.562 383.7C365.562 380 362.563 377 358.863 377ZM358.863 380.536C357.118 380.536 355.699 381.955 355.699 383.7C355.699 384.008 355.449 384.258 355.141 384.258C354.833 384.258 354.583 384.008 354.583 383.7C354.583 381.34 356.503 379.419 358.863 379.419C359.171 379.419 359.421 379.67 359.421 379.978C359.421 380.286 359.171 380.536 358.863 380.536Z" fill="#E27031"/>
</g>
<g filter="url(#filter2_d_424_257)">
<rect width="12.5584" height="12.9322" rx="1.05372" transform="matrix(0.866025 -0.5 0.866025 0.5 394 362.194)" fill="#073766"/>
</g>
<g clip-path="url(#clip2_424_257)">
<path d="M403.771 354.667V360.929L404.651 362.249C404.841 362.534 405.259 362.534 405.449 362.249L406.329 360.929V354.667C405.913 354.744 405.487 354.789 405.05 354.789C404.613 354.789 404.186 354.744 403.771 354.667ZM405.05 342C401.871 342 399.295 344.577 399.295 347.755C399.295 350.934 401.871 353.51 405.05 353.51C408.228 353.51 410.805 350.934 410.805 347.755C410.805 344.577 408.228 342 405.05 342ZM405.05 345.037C403.551 345.037 402.332 346.256 402.332 347.755C402.332 348.02 402.117 348.235 401.852 348.235C401.588 348.235 401.373 348.02 401.373 347.755C401.373 345.728 403.023 344.078 405.05 344.078C405.314 344.078 405.529 344.293 405.529 344.558C405.529 344.822 405.314 345.037 405.05 345.037Z" fill="#E27031"/>
</g>
<g filter="url(#filter3_d_424_257)">
<rect width="11.4684" height="11.8098" rx="0.962269" transform="matrix(0.866025 -0.5 0.866025 0.5 392 383.441)" fill="#073766"/>
</g>
<g clip-path="url(#clip3_424_257)">
<path d="M400.923 376.568V382.287L401.727 383.492C401.9 383.752 402.282 383.752 402.456 383.492L403.259 382.287V376.568C402.88 376.638 402.49 376.679 402.091 376.679C401.692 376.679 401.302 376.638 400.923 376.568ZM402.091 365C399.188 365 396.835 367.353 396.835 370.256C396.835 373.159 399.188 375.512 402.091 375.512C404.994 375.512 407.347 373.159 407.347 370.256C407.347 367.353 404.994 365 402.091 365ZM402.091 367.774C400.722 367.774 399.609 368.887 399.609 370.256C399.609 370.497 399.413 370.694 399.171 370.694C398.93 370.694 398.733 370.497 398.733 370.256C398.733 368.404 400.24 366.898 402.091 366.898C402.333 366.898 402.529 367.094 402.529 367.336C402.529 367.578 402.333 367.774 402.091 367.774Z" fill="#E27031"/>
</g>
<defs>
<filter id="filter0_d_424_257" x="383.607" y="329.811" width="30.6608" height="23.4718" filterUnits="userSpaceOnUse" color-interpolation-filters="sRGB">
<feFlood flood-opacity="0" result="BackgroundImageFix"/>
<feColorMatrix in="SourceAlpha" type="matrix" values="0 0 0 0 0 0 0 0 0 0 0 0 0 0 0 0 0 0 127 0" result="hardAlpha"/>
<feOffset dy="5.11933"/>
<feGaussianBlur stdDeviation="3.41288"/>
<feComposite in2="hardAlpha" operator="out"/>
<feColorMatrix type="matrix" values="0 0 0 0 0.0156863 0 0 0 0 0.0901961 0 0 0 0 0.168627 0 0 0 0.25 0"/>
<feBlend mode="normal" in2="BackgroundImageFix" result="effect1_dropShadow_424_257"/>
<feBlend mode="normal" in="SourceGraphic" in2="effect1_dropShadow_424_257" result="shape"/>
</filter>
<filter id="filter1_d_424_257" x="336.81" y="391.104" width="44.0783" height="33.7434" filterUnits="userSpaceOnUse" color-interpolation-filters="sRGB">
<feFlood flood-opacity="0" result="BackgroundImageFix"/>
<feColorMatrix in="SourceAlpha" type="matrix" values="0 0 0 0 0 0 0 0 0 0 0 0 0 0 0 0 0 0 127 0" result="hardAlpha"/>
<feOffset dy="7.35962"/>
<feGaussianBlur stdDeviation="4.90641"/>
<feComposite in2="hardAlpha" operator="out"/>
<feColorMatrix type="matrix" values="0 0 0 0 0.0138889 0 0 0 0 0.0912963 0 0 0 0 0.166667 0 0 0 1 0"/>
<feBlend mode="normal" in2="BackgroundImageFix" result="effect1_dropShadow_424_257"/>
<feBlend mode="normal" in="SourceGraphic" in2="effect1_dropShadow_424_257" result="shape"/>
</filter>
<filter id="filter2_d_424_257" x="386.105" y="354.116" width="37.8659" height="28.9876" filterUnits="userSpaceOnUse" color-interpolation-filters="sRGB">
<feFlood flood-opacity="0" result="BackgroundImageFix"/>
<feColorMatrix in="SourceAlpha" type="matrix" values="0 0 0 0 0 0 0 0 0 0 0 0 0 0 0 0 0 0 127 0" result="hardAlpha"/>
<feOffset dy="6.32235"/>
<feGaussianBlur stdDeviation="4.2149"/>
<feComposite in2="hardAlpha" operator="out"/>
<feColorMatrix type="matrix" values="0 0 0 0 0.0156863 0 0 0 0 0.0901961 0 0 0 0 0.168627 0 0 0 0.25 0"/>
<feBlend mode="normal" in2="BackgroundImageFix" result="effect1_dropShadow_424_257"/>
<feBlend mode="normal" in="SourceGraphic" in2="effect1_dropShadow_424_257" result="shape"/>
</filter>
<filter id="filter3_d_424_257" x="384.79" y="376.064" width="34.5794" height="26.4717" filterUnits="userSpaceOnUse" color-interpolation-filters="sRGB">
<feFlood flood-opacity="0" result="BackgroundImageFix"/>
<feColorMatrix in="SourceAlpha" type="matrix" values="0 0 0 0 0 0 0 0 0 0 0 0 0 0 0 0 0 0 127 0" result="hardAlpha"/>
<feOffset dy="5.77361"/>
<feGaussianBlur stdDeviation="3.84908"/>
<feComposite in2="hardAlpha" operator="out"/>
<feColorMatrix type="matrix" values="0 0 0 0 0.0156863 0 0 0 0 0.0901961 0 0 0 0 0.168627 0 0 0 0.25 0"/>
<feBlend mode="normal" in2="BackgroundImageFix" result="effect1_dropShadow_424_257"/>
<feBlend mode="normal" in="SourceGraphic" in2="effect1_dropShadow_424_257" result="shape"/>
</filter>
<clipPath id="clip0_424_257">
<rect width="16.5693" height="16.5693" fill="white" transform="translate(390.663 320)"/>
</clipPath>
<clipPath id="clip1_424_257">
<rect width="23.8202" height="23.8202" fill="white" transform="translate(346.953 377)"/>
</clipPath>
<clipPath id="clip2_424_257">
<rect width="20.463" height="20.463" fill="white" transform="translate(394.818 342)"/>
</clipPath>
<clipPath id="clip3_424_257">
<rect width="18.687" height="18.687" fill="white" transform="translate(392.748 365)"/>
</clipPath>
</defs>
</svg>
