<?xml version="1.0" encoding="utf-8"?>
<svg version="1.1" id="Camada_1" data-name="Camada 1" xmlns="http://www.w3.org/2000/svg" width="20" height="20" viewBox="0 0 20 20" 
style="enable-background:new 0 0 20 20;" xml:space="preserve" fill="none">

<path d="M0 20L1.3793 15C0.482773 13.4483 0 11.7241 0 9.93102C0 4.48277 4.48277 0 9.96551 0C15.4482 0 20 4.48277 20 9.93102C20 15.3793 15.4483 20 9.96551 20C8.24137 20 6.58621 19.4483 5.10344 18.6207L0 20Z" fill="#EDEDED"/>
<path d="M5.37928 16.8276L5.68963 17C6.96549 17.7931 8.44826 18.2759 9.99998 18.2759C14.5172 18.2759 18.2758 14.5172 18.2758 9.93101C18.2758 5.3448 14.5172 1.72414 9.96549 1.72414C5.41377 1.72414 1.72412 5.37929 1.72412 9.93101C1.72412 11.5172 2.1724 13.0689 2.99998 14.3793L3.20689 14.6896L2.41381 17.5862L5.37928 16.8276Z" fill="#55CD6C"/>
<path d="M7.31033 5.31036L6.65518 5.27586C6.44826 5.27586 6.24139 5.34485 6.10346 5.48278C5.79311 5.75864 5.27588 6.27586 5.13795 6.96555C4.89658 8.00004 5.27588 9.24141 6.17244 10.4828C7.06901 11.7241 8.79315 13.7241 11.8276 14.5862C12.7931 14.8621 13.5517 14.6897 14.1724 14.3104C14.6552 14 14.9655 13.5173 15.069 13L15.1724 12.5172C15.2069 12.3793 15.138 12.2069 15 12.1379L12.8276 11.1379C12.6897 11.0689 12.5173 11.1034 12.4138 11.2414L11.5517 12.3448C11.4828 12.4138 11.3793 12.4482 11.2759 12.4138C10.6897 12.2069 8.72416 11.3793 7.65518 9.31036C7.62069 9.20692 7.62069 9.10344 7.68967 9.0345L8.51725 8.10348C8.58623 8.00004 8.62069 7.86211 8.58623 7.75864L7.58623 5.51727C7.5517 5.41379 7.44826 5.31036 7.31033 5.31036Z" fill="#FEFEFE"/>
</svg>
